<svg width="16" height="16" viewBox="0 0 16 16" fill="none" xmlns="http://www.w3.org/2000/svg">
<path fill-rule="evenodd" clip-rule="evenodd" d="M7.33336 2.12663C7.37941 1.9806 7.47082 1.85306 7.5943 1.76252C7.71778 1.67198 7.86691 1.62317 8.02003 1.62317C8.17315 1.62317 8.32228 1.67198 8.44576 1.76252C8.56924 1.85306 8.66065 1.9806 8.7067 2.12663L9.9467 5.93996H13.9467C14.1053 5.93397 14.2615 5.98006 14.3914 6.07119C14.5213 6.16232 14.6179 6.29348 14.6662 6.44464C14.7146 6.5958 14.7122 6.75863 14.6593 6.90827C14.6064 7.0579 14.506 7.18611 14.3734 7.2733L11.1267 9.62663L12.3667 13.4466C12.4157 13.5921 12.417 13.7495 12.3702 13.8958C12.3235 14.042 12.2312 14.1695 12.1068 14.2596C11.9825 14.3497 11.8326 14.3977 11.6791 14.3966C11.5255 14.3954 11.3764 14.3452 11.2534 14.2533L8.00003 11.8733L4.75336 14.2333C4.63037 14.3252 4.48121 14.3754 4.32766 14.3766C4.17411 14.3777 4.02422 14.3297 3.89988 14.2396C3.77553 14.1495 3.68325 14.022 3.6365 13.8758C3.58975 13.7295 3.59099 13.5721 3.64003 13.4266L4.88003 9.60663L1.63336 7.2533C1.50075 7.16611 1.40033 7.0379 1.34744 6.88827C1.29456 6.73863 1.29211 6.5758 1.34048 6.42464C1.38885 6.27348 1.48538 6.14232 1.61531 6.05119C1.74524 5.96006 1.90144 5.91397 2.06003 5.91996H6.06003L7.33336 2.12663Z" stroke="#EBEBEB" stroke-width="1.5" stroke-linecap="round" stroke-linejoin="round"/>
</svg>
