<svg xmlns="http://www.w3.org/2000/svg" width="19" height="19" fill="none" viewBox="0 0 40 40">
  <path stroke="#C7522D" stroke-linecap="round" stroke-linejoin="round" stroke-width="2.5" d="M15.833 3.333H9.167a3.333 3.333 0 00-3.334 3.334v6.667a3.333 3.333 0 003.334 3.333h6.666a3.333 3.333 0 003.334-3.334V6.668a3.333 3.333 0 00-3.334-3.333zM15.833 23.334H9.167a3.333 3.333 0 00-3.334 3.333v6.666a3.333 3.333 0 003.334 3.334h6.666a3.333 3.333 0 003.334-3.334v-6.666a3.333 3.333 0 00-3.334-3.334zM34.166 26.667h-10M30.833 33.334h-6.666M30.833 13.334h-6.666M34.166 6.667h-10"/>
</svg>
