<svg xmlns="http://www.w3.org/2000/svg" width="40" height="40" fill="none" viewBox="0 0 40 40">
  <path stroke="#151515" stroke-linecap="round" stroke-linejoin="round" stroke-width="3.5" d="M34.167 13.334H7.5a3.333 3.333 0 00-3.333 3.333v16.666A3.333 3.333 0 007.5 36.668h26.667a3.333 3.333 0 003.333-3.334V16.668a3.333 3.333 0 00-3.333-3.334z"/>
  <path stroke="#151515" stroke-linecap="round" stroke-linejoin="round" stroke-width="3.5" d="M20.833 26.667a4.167 4.167 0 100-8.334 4.167 4.167 0 000 8.334zM20.833 26.667v5M11.667 13.334V6.667A3.333 3.333 0 0115 3.334h10a3.333 3.333 0 013.333 3.333v6.667"/>
</svg>
