<svg width="33" height="20" viewBox="0 0 33 20" fill="none" xmlns="http://www.w3.org/2000/svg">
<path d="M20.9607 2.13867H12.0381V17.8609H20.9607V2.13867Z" fill="#FF5F00"/>
<path d="M12.6049 10C12.6049 6.80556 14.1345 3.97222 16.4855 2.13889C14.7576 0.805556 12.5766 0 10.1972 0C4.56042 0 0 4.47222 0 10C0 15.5278 4.56042 20 10.1972 20C12.5766 20 14.7576 19.1944 16.4855 17.8611C14.1345 16.0556 12.6049 13.1944 12.6049 10Z" fill="#EB001B"/>
<path d="M33.0002 10C33.0002 15.5278 28.4397 20 22.8029 20C20.4236 20 18.2425 19.1944 16.5146 17.8611C18.894 16.0278 20.3953 13.1944 20.3953 10C20.3953 6.80556 18.8657 3.97222 16.5146 2.13889C18.2425 0.805556 20.4236 0 22.8029 0C28.4397 0 33.0002 4.5 33.0002 10Z" fill="#F79E1B"/>
</svg>
