<svg width="17" height="16" viewBox="0 0 17 16" fill="none" xmlns="http://www.w3.org/2000/svg">
<path fill-rule="evenodd" clip-rule="evenodd" d="M7.94835 2.12651C7.9944 1.98048 8.08581 1.85293 8.20929 1.7624C8.33277 1.67186 8.4819 1.62305 8.63502 1.62305C8.78814 1.62305 8.93727 1.67186 9.06075 1.7624C9.18423 1.85293 9.27564 1.98048 9.32169 2.12651L10.5617 5.93984H14.5617C14.7203 5.93384 14.8765 5.97993 15.0064 6.07107C15.1363 6.1622 15.2329 6.29336 15.2812 6.44452C15.3296 6.59567 15.3272 6.75851 15.2743 6.90814C15.2214 7.05778 15.121 7.18598 14.9884 7.27317L11.7417 9.62651L12.9817 13.4465C13.0307 13.592 13.032 13.7494 12.9852 13.8957C12.9385 14.0419 12.8462 14.1694 12.7218 14.2595C12.5975 14.3496 12.4476 14.3976 12.2941 14.3964C12.1405 14.3953 11.9913 14.3451 11.8684 14.2532L8.61502 11.8732L5.36835 14.2332C5.24536 14.3251 5.0962 14.3753 4.94265 14.3764C4.7891 14.3776 4.63921 14.3296 4.51487 14.2395C4.39052 14.1494 4.29824 14.0219 4.25149 13.8757C4.20474 13.7294 4.20598 13.572 4.25502 13.4265L5.49502 9.60651L2.24835 7.25317C2.11574 7.16599 2.01532 7.03778 1.96243 6.88814C1.90955 6.73851 1.9071 6.57567 1.95547 6.42452C2.00384 6.27336 2.10037 6.1422 2.2303 6.05107C2.36023 5.95993 2.51643 5.91384 2.67502 5.91984H6.67502L7.94835 2.12651Z" stroke="#D1D1D1" stroke-linecap="round" stroke-linejoin="round"/>
</svg>
