<svg width="589" height="452" viewBox="0 0 589 452" fill="none" xmlns="http://www.w3.org/2000/svg">
<g clip-path="url(#clip0)">
<path opacity="0.1" d="M574.726 307.321C574.199 307.706 573.713 308.081 573.196 308.444C571.288 309.793 569.29 311.01 567.217 312.089C556.358 317.81 542.97 320.606 529.932 322.504C500.688 326.765 470.832 327.593 441.102 328.405C360.774 330.61 280.25 332.809 200.117 327.73C168.456 325.726 136.099 322.372 107.409 312.089C103.296 310.619 99.265 308.998 95.3144 307.226C87.3201 303.635 79.6424 299.263 73.2575 294.042C67.2578 289.148 62.3926 283.526 59.4851 277.134C53.4221 263.823 56.6303 248.872 63.5535 235.825C66.4288 230.547 69.6714 225.477 73.2575 220.653C78.6029 213.306 84.497 206.171 89.8741 198.83C109.008 172.736 121.493 139.722 103.831 112.958C98.7549 105.269 91.4202 98.5187 87.2832 90.4921C82.0064 80.2241 82.4127 68.8223 84.0907 57.7475C84.3088 56.3412 84.5393 54.9489 84.782 53.5708C87.6473 37.1484 93.0401 19.455 109.667 9.20294C126.938 -1.44998 151.465 -0.91206 172.899 2.87447C206.232 8.82323 236.98 21.2059 268.055 32.3862C299.13 43.5665 331.641 53.7817 365.792 54.8786C395.949 55.849 431.124 48.5871 451.139 29.7124C470.578 11.381 507.12 9.98345 533.456 21.0583C551.535 28.6577 565.022 42.3483 570.711 57.7475C571.863 60.8392 572.692 64.0415 573.185 67.3035C573.641 70.2847 573.79 73.3048 573.629 76.3163C573.549 77.8035 573.396 79.2749 573.185 80.7304C568.785 111.118 537.108 135.087 517.853 162.23C508.444 175.489 501.801 191.415 508.27 205.712C518.138 227.498 552.453 235.245 573.175 251.457C577.074 254.407 580.508 257.927 583.359 261.899C593.411 276.327 589.702 295.814 574.726 307.321Z" fill="#6A983C"/>
<path d="M136.136 171.321C136.136 171.321 111.862 128.33 75.2837 115.947C59.9335 110.747 46.5358 100.97 37.3753 87.6064C33.0385 81.2616 29.2938 74.5322 26.1885 67.5029" stroke="#535461" stroke-width="2" stroke-miterlimit="10"/>
<path d="M3.18721 59.545C7.35587 63.5688 26.7639 67.7878 26.7639 67.7878C26.7639 67.7878 22.0148 48.5282 17.8356 44.4833C15.8266 42.582 13.149 41.5486 10.3829 41.6068C7.61682 41.6651 4.98513 42.8104 3.05815 44.7945C1.13116 46.7787 0.0641332 49.4418 0.0882921 52.2068C0.112451 54.9718 1.22585 57.6159 3.18721 59.5661V59.545Z" fill="#6A983C"/>
<path d="M14.1679 94.3983C19.8616 95.5269 38.4411 88.497 38.4411 88.497C38.4411 88.497 23.9564 74.9119 18.2574 73.7833C15.5489 73.3067 12.7614 73.9093 10.4922 75.4622C8.22295 77.015 6.65266 79.3945 6.11782 82.0906C5.58298 84.7867 6.12615 87.5849 7.63093 89.8855C9.13571 92.1862 11.4824 93.8062 14.1679 94.3983Z" fill="#6A983C"/>
<path d="M54.1391 132.127C59.6269 130.229 72.0802 114.793 72.0802 114.793C72.0802 114.793 52.7249 110.368 47.2423 112.266C45.8971 112.684 44.6495 113.368 43.5737 114.276C42.4978 115.185 41.6156 116.301 40.9794 117.557C40.3432 118.813 39.966 120.184 39.8701 121.588C39.7742 122.993 39.9617 124.403 40.4213 125.733C40.881 127.064 41.6034 128.289 42.5458 129.335C43.4883 130.382 44.6314 131.228 45.9074 131.825C47.1835 132.421 48.5664 132.755 49.9741 132.807C51.3818 132.859 52.7856 132.628 54.1021 132.127H54.1391Z" fill="#6A983C"/>
<path d="M90.8135 153.85C96.5441 152.901 111.446 139.795 111.446 139.795C111.446 139.795 93.1194 132.164 87.3888 133.108C84.6367 133.562 82.1778 135.09 80.5529 137.356C78.928 139.622 78.2702 142.44 78.7244 145.19C79.1785 147.941 80.7073 150.398 82.9744 152.022C85.2416 153.646 88.0614 154.304 90.8135 153.85Z" fill="#6A983C"/>
<path d="M54.6097 73.4463C54.6097 79.2474 44.1089 96.0864 44.1089 96.0864C44.1089 96.0864 33.587 79.258 33.5817 73.4569C33.5504 72.0572 33.7991 70.6653 34.3134 69.363C34.8277 68.0606 35.5971 66.8741 36.5765 65.8731C37.556 64.8721 38.7256 64.0767 40.0168 63.5337C41.3081 62.9907 42.6948 62.7109 44.0957 62.7109C45.4966 62.7109 46.8834 62.9907 48.1746 63.5337C49.4658 64.0767 50.6355 64.8721 51.6149 65.8731C52.5944 66.8741 53.3638 68.0606 53.8781 69.363C54.3924 70.6653 54.6411 72.0572 54.6097 73.4569V73.4463Z" fill="#6A983C"/>
<path d="M97.1831 99.4298C95.4471 104.967 80.3818 117.888 80.3818 117.888C80.3818 117.888 75.3794 98.6651 77.0944 93.1013C78.0161 90.5539 79.8864 88.4605 82.315 87.2578C84.7436 86.0551 87.5431 85.836 90.1295 86.6461C92.7159 87.4563 94.8895 89.2332 96.1968 91.6061C97.5041 93.9791 97.8442 96.7648 97.1462 99.3823L97.1831 99.4298Z" fill="#6A983C"/>
<path d="M135.091 130.308C134.321 136.061 121.656 151.339 121.656 151.339C121.656 151.339 113.477 133.261 114.269 127.507C114.679 124.778 116.146 122.32 118.354 120.663C120.562 119.005 123.333 118.283 126.07 118.65C128.807 119.018 131.289 120.447 132.981 122.628C134.672 124.809 135.438 127.567 135.112 130.308H135.091Z" fill="#6A983C"/>
<path opacity="0.25" d="M3.18721 59.545C7.35587 63.5688 26.7639 67.7878 26.7639 67.7878C26.7639 67.7878 22.0148 48.5282 17.8356 44.4833C15.8266 42.582 13.149 41.5486 10.3829 41.6068C7.61682 41.6651 4.98513 42.8104 3.05815 44.7945C1.13116 46.7787 0.0641332 49.4418 0.0882921 52.2068C0.112451 54.9718 1.22585 57.6159 3.18721 59.5661V59.545Z" fill="black"/>
<path opacity="0.25" d="M14.1679 94.3983C19.8616 95.5269 38.4411 88.497 38.4411 88.497C38.4411 88.497 23.9564 74.9119 18.2574 73.7833C15.5489 73.3067 12.7614 73.9093 10.4922 75.4622C8.22295 77.015 6.65266 79.3945 6.11782 82.0906C5.58298 84.7867 6.12615 87.5849 7.63093 89.8855C9.13571 92.1862 11.4824 93.8062 14.1679 94.3983Z" fill="black"/>
<path opacity="0.25" d="M54.1391 132.127C59.6269 130.229 72.0802 114.793 72.0802 114.793C72.0802 114.793 52.7249 110.368 47.2423 112.266C45.8971 112.684 44.6495 113.368 43.5737 114.276C42.4978 115.185 41.6156 116.301 40.9794 117.557C40.3432 118.813 39.966 120.184 39.8701 121.588C39.7742 122.993 39.9617 124.403 40.4213 125.733C40.881 127.064 41.6034 128.289 42.5458 129.335C43.4883 130.382 44.6314 131.228 45.9074 131.825C47.1835 132.421 48.5664 132.755 49.9741 132.807C51.3818 132.859 52.7856 132.628 54.1021 132.127H54.1391Z" fill="black"/>
<path opacity="0.25" d="M90.8135 153.85C96.5441 152.901 111.446 139.795 111.446 139.795C111.446 139.795 93.1194 132.164 87.3888 133.108C84.6367 133.562 82.1778 135.09 80.5529 137.356C78.928 139.622 78.2702 142.44 78.7244 145.19C79.1785 147.941 80.7073 150.398 82.9744 152.022C85.2416 153.646 88.0614 154.304 90.8135 153.85Z" fill="black"/>
<path opacity="0.25" d="M54.6097 73.4463C54.6097 79.2474 44.1089 96.0864 44.1089 96.0864C44.1089 96.0864 33.587 79.258 33.5817 73.4569C33.5504 72.0572 33.7991 70.6653 34.3134 69.363C34.8277 68.0606 35.5971 66.8741 36.5765 65.8731C37.556 64.8721 38.7256 64.0767 40.0168 63.5337C41.3081 62.9907 42.6948 62.7109 44.0957 62.7109C45.4966 62.7109 46.8834 62.9907 48.1746 63.5337C49.4658 64.0767 50.6355 64.8721 51.6149 65.8731C52.5944 66.8741 53.3638 68.0606 53.8781 69.363C54.3924 70.6653 54.6411 72.0572 54.6097 73.4569V73.4463Z" fill="black"/>
<path opacity="0.25" d="M97.1831 99.4298C95.4471 104.967 80.3818 117.888 80.3818 117.888C80.3818 117.888 75.3794 98.6651 77.0944 93.1013C78.0161 90.5539 79.8864 88.4605 82.315 87.2578C84.7436 86.0551 87.5431 85.836 90.1295 86.6461C92.7159 87.4563 94.8895 89.2332 96.1968 91.6061C97.5041 93.9791 97.8442 96.7648 97.1462 99.3823L97.1831 99.4298Z" fill="black"/>
<path opacity="0.25" d="M135.091 130.308C134.321 136.061 121.656 151.339 121.656 151.339C121.656 151.339 113.477 133.261 114.269 127.507C114.679 124.778 116.146 122.32 118.354 120.663C120.562 119.005 123.333 118.283 126.07 118.65C128.807 119.018 131.289 120.447 132.981 122.628C134.672 124.809 135.438 127.567 135.112 130.308H135.091Z" fill="black"/>
<path d="M134.737 170.467C134.737 170.467 129.988 121.326 101.557 95.1896C89.6368 84.2202 81.3522 69.8757 78.3919 53.928C77.0024 46.3692 76.31 38.6989 76.3234 31.0137" stroke="#535461" stroke-width="2" stroke-miterlimit="10"/>
<path d="M58.514 14.4389C60.688 19.8233 76.7347 31.5046 76.7347 31.5046C76.7347 31.5046 80.191 11.9655 78.0223 6.58103C76.9797 3.99348 74.9512 1.92584 72.3833 0.832983C69.8153 -0.259878 66.9181 -0.288442 64.329 0.753573C61.7399 1.79559 59.6711 3.82282 58.5776 6.38932C57.4841 8.95581 57.4555 11.8513 58.4982 14.4389H58.514Z" fill="#6A983C"/>
<path d="M54.4032 50.7484C59.1523 54.0867 78.9772 55.1783 78.9772 55.1783C78.9772 55.1783 71.2889 36.8996 66.5398 33.5613C64.2593 31.9528 61.4329 31.3156 58.6824 31.7899C55.9318 32.2641 53.4824 33.8109 51.873 36.0901C50.2636 38.3692 49.626 41.194 50.1005 43.943C50.575 46.6919 52.1227 49.1399 54.4032 50.7484Z" fill="#6A983C"/>
<path d="M75.6742 101.418C81.4787 101.908 99.1243 92.8429 99.1243 92.8429C99.1243 92.8429 83.2253 80.9612 77.4367 80.4761C76.0439 80.3279 74.6355 80.4592 73.2942 80.8624C71.9529 81.2656 70.7056 81.9325 69.6257 82.824C68.5458 83.7155 67.655 84.8137 67.0055 86.0539C66.3561 87.2942 65.961 88.6517 65.8436 90.0466C65.7262 91.4415 65.8889 92.8458 66.3219 94.1771C66.755 95.5084 67.4497 96.7398 68.3655 97.7991C69.2812 98.8583 70.3994 99.7241 71.6545 100.346C72.9096 100.967 74.2762 101.332 75.6742 101.418Z" fill="#6A983C"/>
<path d="M100.391 136.141C106.016 137.596 124.954 131.647 124.954 131.647C124.954 131.647 111.292 117.25 105.673 115.795C102.99 115.145 100.159 115.576 97.7917 116.993C95.4239 118.411 93.7087 120.702 93.0161 123.372C92.3236 126.043 92.7092 128.878 94.0898 131.267C95.4704 133.655 97.7353 135.406 100.396 136.141H100.391Z" fill="#6A983C"/>
<path d="M99.8901 47.9744C97.5419 53.2797 81.11 64.4126 81.11 64.4126C81.11 64.4126 78.3133 44.7732 80.6615 39.4626C81.2053 38.1777 81.9996 37.0139 82.9981 36.039C83.9966 35.0642 85.1794 34.2977 86.4773 33.7843C87.7753 33.271 89.1625 33.021 90.5581 33.049C91.9537 33.077 93.3298 33.3824 94.6061 33.9473C95.8824 34.5123 97.0334 35.3256 97.992 36.3397C98.9506 37.3538 99.6976 38.5485 100.189 39.8542C100.681 41.1598 100.908 42.5502 100.857 43.9443C100.805 45.3385 100.477 46.7085 99.8901 47.9744Z" fill="#6A983C"/>
<path d="M128.279 88.9406C124.448 93.302 105.436 99.0134 105.436 99.0134C105.436 99.0134 108.644 79.4374 112.48 75.076C113.391 74.0393 114.497 73.192 115.736 72.5825C116.974 71.9731 118.321 71.6134 119.698 71.524C121.076 71.4346 122.458 71.6173 123.765 72.0617C125.072 72.506 126.278 73.2032 127.316 74.1136C128.353 75.0239 129.201 76.1296 129.811 77.3674C130.42 78.6052 130.78 79.951 130.87 81.3278C130.959 82.7046 130.776 84.0855 130.332 85.3918C129.887 86.698 129.19 87.9039 128.279 88.9406Z" fill="#6A983C"/>
<path d="M150.442 132.549C147.402 137.496 129.63 146.335 129.63 146.335C129.63 146.335 129.482 126.495 132.522 121.548C133.981 119.17 136.326 117.469 139.041 116.82C141.755 116.17 144.617 116.624 146.996 118.083C149.375 119.542 151.077 121.886 151.727 124.599C152.377 127.311 151.922 130.171 150.463 132.549H150.442Z" fill="#6A983C"/>
<path opacity="0.1" d="M215.377 449.163C247.88 449.163 274.229 445.734 274.229 441.505C274.229 437.276 247.88 433.848 215.377 433.848C182.874 433.848 156.525 437.276 156.525 441.505C156.525 445.734 182.874 449.163 215.377 449.163Z" fill="#6A983C"/>
<path opacity="0.1" d="M96.5018 443.973C106.375 443.973 114.38 442.603 114.38 440.914C114.38 439.225 106.375 437.855 96.5018 437.855C86.6282 437.855 78.624 439.225 78.624 440.914C78.624 442.603 86.6282 443.973 96.5018 443.973Z" fill="#6A983C"/>
<path d="M100.386 406.856C100.386 406.856 103.283 410.648 99.0457 416.349C94.8084 422.05 91.3152 426.897 92.7136 430.467C92.7136 430.467 99.1038 419.84 104.322 419.693C109.541 419.545 106.117 413.248 100.386 406.856Z" fill="#6A983C"/>
<path opacity="0.1" d="M100.386 406.856C100.639 407.223 100.838 407.625 100.977 408.048C106.053 414.008 108.76 419.571 103.879 419.709C99.3357 419.84 93.8795 427.962 92.5762 430.013C92.6192 430.172 92.6703 430.329 92.7292 430.483C92.7292 430.483 99.1194 419.856 104.338 419.709C109.557 419.561 106.116 413.248 100.386 406.856Z" fill="black"/>
<path d="M105.774 411.687C105.774 413.021 105.626 414.102 105.441 414.102C105.257 414.102 105.104 413.048 105.104 411.687C105.104 410.326 105.293 410.98 105.478 410.98C105.663 410.98 105.774 410.353 105.774 411.687Z" fill="#FFD037"/>
<path d="M107.626 413.279C106.455 413.917 105.431 414.302 105.341 414.139C105.252 413.975 106.133 413.327 107.304 412.689C108.476 412.051 108.011 412.515 108.101 412.689C108.191 412.863 108.798 412.641 107.626 413.279Z" fill="#FFD037"/>
<path d="M85.0728 406.856C85.0728 406.856 82.1758 410.648 86.4131 416.349C90.6504 422.05 94.1436 426.897 92.7452 430.467C92.7452 430.467 86.3551 419.84 81.1363 419.693C75.9176 419.545 79.3528 413.248 85.0728 406.856Z" fill="#6A983C"/>
<path opacity="0.1" d="M85.0726 406.856C84.8195 407.223 84.6205 407.625 84.4816 408.048C79.4053 414.008 76.6983 419.571 81.5793 419.709C86.1279 419.84 91.5788 427.962 92.8822 430.013C92.8416 430.173 92.7904 430.33 92.7292 430.483C92.7292 430.483 86.339 419.856 81.1202 419.709C75.9015 419.561 79.3525 413.248 85.0726 406.856Z" fill="black"/>
<path d="M79.6846 411.687C79.6846 413.021 79.8323 414.102 80.017 414.102C80.2017 414.102 80.3547 413.048 80.3547 411.687C80.3547 410.326 80.1647 410.98 79.9801 410.98C79.7954 410.98 79.6846 410.353 79.6846 411.687Z" fill="#FFD037"/>
<path d="M77.8381 413.279C79.0096 413.917 80.028 414.302 80.1177 414.139C80.2074 413.975 79.3262 413.327 78.1547 412.689C76.9833 412.051 77.4476 412.515 77.3579 412.689C77.2682 412.863 76.6667 412.641 77.8381 413.279Z" fill="#FFD037"/>
<path d="M80.6084 429.987C80.6084 429.987 88.7135 429.734 91.162 427.999C93.6104 426.264 103.626 424.181 104.233 426.971C104.839 429.761 116.411 440.835 107.261 440.909C98.1115 440.983 86.0013 439.485 83.5634 438.003C81.1255 436.522 80.6084 429.987 80.6084 429.987Z" fill="#A8A8A8"/>
<path opacity="0.2" d="M107.42 439.939C98.2698 440.012 86.1596 438.515 83.7217 437.033C81.8643 435.899 81.1255 431.843 80.8775 429.977H80.6084C80.6084 429.977 81.1361 436.505 83.5581 437.993C85.9802 439.48 98.1062 440.972 107.256 440.898C109.895 440.898 110.813 439.939 110.76 438.546C110.396 439.401 109.388 439.923 107.42 439.939Z" fill="black"/>
<path d="M351.276 429.675C351.276 429.675 328.966 428.331 331.599 443.957C331.599 443.957 331.071 446.715 333.578 447.97C333.578 447.97 333.62 446.815 335.868 447.205C336.668 447.34 337.481 447.379 338.29 447.321C339.386 447.249 340.428 446.819 341.255 446.098C341.255 446.098 347.524 443.514 349.962 433.267C349.962 433.267 351.767 431.031 351.698 430.456L347.93 432.038C347.93 432.038 349.218 434.754 348.205 437.011C348.205 437.011 348.083 432.138 347.36 432.265C347.213 432.265 345.403 433.204 345.403 433.204C345.403 433.204 347.619 437.95 345.93 441.367C345.93 441.367 346.564 435.566 344.696 433.546L342.057 435.092C342.057 435.092 344.643 439.975 342.891 443.962C342.891 443.962 343.34 437.85 341.503 435.466L339.102 437.338C339.102 437.338 341.53 442.153 340.047 445.46C340.047 445.46 339.857 438.345 338.58 437.808C338.58 437.808 336.469 439.659 336.158 440.444C336.158 440.444 337.82 443.936 336.791 445.781C336.791 445.781 336.158 441.035 335.636 441.035C335.636 441.035 333.525 444.199 333.324 446.309C333.324 446.309 333.419 443.108 335.129 440.713C333.922 440.943 332.809 441.521 331.926 442.375C331.926 442.375 332.253 440.154 335.62 439.959C335.62 439.959 337.35 437.575 337.815 437.433C337.815 437.433 334.438 437.148 332.39 438.055C332.39 438.055 334.19 435.946 338.432 436.911L340.801 434.981C340.801 434.981 336.358 434.369 334.469 435.044C334.469 435.044 336.643 433.188 341.44 434.517L344.026 432.977C344.026 432.977 340.232 432.159 337.973 432.449C337.973 432.449 340.358 431.163 344.78 432.555L346.627 431.727C346.627 431.727 343.846 431.2 343.034 431.099C342.221 430.999 342.179 430.788 342.179 430.788C343.938 430.495 345.745 430.696 347.397 431.368C347.397 431.368 351.344 429.923 351.276 429.675Z" fill="#6A983C"/>
<path opacity="0.1" d="M335.91 451.999C344.63 451.999 351.698 450.804 351.698 449.331C351.698 447.857 344.63 446.662 335.91 446.662C327.191 446.662 320.122 447.857 320.122 449.331C320.122 450.804 327.191 451.999 335.91 451.999Z" fill="#6A983C"/>
<path d="M312.191 430.51C312.191 430.51 299.611 429.75 301.109 438.563C301.034 439.009 301.101 439.469 301.302 439.875C301.503 440.281 301.827 440.614 302.228 440.825C302.228 440.825 302.228 440.171 303.521 440.393C303.971 440.466 304.427 440.489 304.882 440.461C305.499 440.416 306.086 440.174 306.555 439.77C306.555 439.77 310.09 438.309 311.468 432.535C311.468 432.535 312.481 431.274 312.444 430.953L310.333 431.854C310.333 431.854 311.056 433.389 310.486 434.66C310.486 434.66 310.418 431.912 310.011 431.976C309.927 431.976 308.908 432.503 308.908 432.503C308.908 432.503 310.154 435.14 309.214 437.107C309.214 437.107 309.568 433.822 308.518 432.693L307.025 433.568C307.025 433.568 308.481 436.321 307.494 438.568C307.494 438.568 307.747 435.119 306.708 433.779L305.357 434.834C305.357 434.834 306.724 437.55 305.885 439.412C305.885 439.412 305.774 435.398 305.056 435.098C304.543 435.531 304.084 436.025 303.69 436.569C303.69 436.569 304.629 438.542 304.048 439.58C304.048 439.58 303.69 436.907 303.399 436.896C303.399 436.896 302.217 438.668 302.096 439.881C302.15 438.756 302.499 437.664 303.109 436.717C302.429 436.845 301.802 437.17 301.305 437.65C301.305 437.65 301.489 436.395 303.415 436.29C303.415 436.29 304.386 434.945 304.65 434.866C304.65 434.866 302.745 434.702 301.59 435.214C301.59 435.214 302.608 434.032 304.998 434.57L306.333 433.479C306.333 433.479 303.827 433.136 302.766 433.516C302.766 433.516 303.99 432.461 306.697 433.231L308.149 432.366C307.03 432.118 305.884 432.019 304.74 432.071C304.74 432.071 306.085 431.348 308.576 432.129L309.631 431.665C309.631 431.665 308.048 431.353 307.61 431.306C307.172 431.258 307.125 431.132 307.125 431.132C308.118 430.967 309.137 431.08 310.069 431.459C310.069 431.459 312.227 430.652 312.191 430.51Z" fill="#6A983C"/>
<path opacity="0.1" d="M303.526 443.098C308.442 443.098 312.428 442.425 312.428 441.595C312.428 440.765 308.442 440.092 303.526 440.092C298.61 440.092 294.624 440.765 294.624 441.595C294.624 442.425 298.61 443.098 303.526 443.098Z" fill="#6A983C"/>
<path d="M336.132 411.835C336.132 411.835 320.95 410.918 322.739 421.555C322.647 422.094 322.729 422.649 322.971 423.14C323.214 423.63 323.605 424.032 324.09 424.286C324.09 424.286 324.09 423.501 325.647 423.759C326.191 423.846 326.743 423.873 327.293 423.838C328.039 423.785 328.748 423.493 329.314 423.005C329.314 423.005 333.583 421.244 335.24 414.266C335.24 414.266 336.469 412.748 336.422 412.357L333.857 413.449C333.857 413.449 334.733 415.3 334.047 416.835C334.047 416.835 333.963 413.518 333.467 413.597C333.372 413.597 332.137 414.235 332.137 414.235C332.137 414.235 333.646 417.457 332.507 419.793C332.507 419.793 332.939 415.827 331.668 414.467L329.863 415.522C329.863 415.522 331.625 418.844 330.433 421.56C330.433 421.56 330.739 417.399 329.483 415.759L327.847 417.03C327.847 417.03 329.504 420.305 328.496 422.557C328.496 422.557 328.364 417.715 327.494 417.346C327.494 417.346 326.064 418.607 325.847 419.124C325.847 419.124 326.982 421.502 326.275 422.757C326.275 422.757 325.847 419.535 325.494 419.519C325.494 419.519 324.069 421.629 323.911 423.121C323.979 421.767 324.401 420.454 325.135 419.313C324.314 419.469 323.557 419.862 322.956 420.442C322.956 420.442 323.177 418.928 325.488 418.797C325.488 418.797 326.665 417.178 326.982 417.077C326.982 417.077 324.681 416.888 323.288 417.505C323.288 417.505 324.512 416.075 327.404 416.724L329.019 415.411C329.019 415.411 325.99 414.994 324.708 415.453C324.708 415.453 326.185 414.193 329.457 415.11L331.214 414.056C331.214 414.056 328.633 413.528 327.098 413.702C327.098 413.702 328.718 412.827 331.731 413.771L332.987 413.212C332.987 413.212 331.092 412.837 330.538 412.779C329.984 412.721 329.958 412.568 329.958 412.568C331.155 412.369 332.385 412.506 333.509 412.964C333.509 412.964 336.184 412.004 336.132 411.835Z" fill="#6A983C"/>
<path opacity="0.1" d="M325.678 427.029C331.615 427.029 336.427 426.216 336.427 425.215C336.427 424.213 331.615 423.4 325.678 423.4C319.742 423.4 314.93 424.213 314.93 425.215C314.93 426.216 319.742 427.029 325.678 427.029Z" fill="#6A983C"/>
<path d="M574.167 308.338V50.3848H72.1602V293.54C78.5714 298.888 86.2808 303.386 94.3227 307.083C98.2838 308.908 102.329 310.576 106.459 312.088H568.178L574.167 308.338Z" fill="url(#paint0_linear)"/>
<path d="M573.196 308.443V57.7676H73.2578V294.083C79.6427 299.283 87.3204 303.655 95.3148 307.267C99.2618 309.025 103.293 310.646 107.409 312.13H567.218L573.196 308.443Z" fill="white"/>
<path d="M573.196 51.1182H73.2627V64.3763H573.196V51.1182Z" fill="#5A5773"/>
<path d="M83.2463 61.1752C85.1406 61.1752 86.6762 59.6404 86.6762 57.7473C86.6762 55.8541 85.1406 54.3193 83.2463 54.3193C81.352 54.3193 79.8164 55.8541 79.8164 57.7473C79.8164 59.6404 81.352 61.1752 83.2463 61.1752Z" fill="white"/>
<path d="M92.4807 61.1752C94.375 61.1752 95.9106 59.6404 95.9106 57.7473C95.9106 55.8541 94.375 54.3193 92.4807 54.3193C90.5864 54.3193 89.0508 55.8541 89.0508 57.7473C89.0508 59.6404 90.5864 61.1752 92.4807 61.1752Z" fill="white"/>
<path d="M101.715 61.1752C103.609 61.1752 105.145 59.6404 105.145 57.7473C105.145 55.8541 103.609 54.3193 101.715 54.3193C99.8208 54.3193 98.2852 55.8541 98.2852 57.7473C98.2852 59.6404 99.8208 61.1752 101.715 61.1752Z" fill="white"/>
<path d="M283.601 93.5137H201.02V145.375H283.601V93.5137Z" fill="#6A983C"/>
<path opacity="0.2" d="M169.258 93.5137H86.6768V145.375H169.258V93.5137Z" fill="#5A5773"/>
<path opacity="0.2" d="M397.944 93.5137H315.362V145.375H397.944V93.5137Z" fill="#5A5773"/>
<path opacity="0.2" d="M169.258 167.657H86.6768V219.519H169.258V167.657Z" fill="#5A5773"/>
<path opacity="0.2" d="M283.601 167.657H201.02V219.519H283.601V167.657Z" fill="#5A5773"/>
<path opacity="0.2" d="M397.944 167.657H315.362V219.519H397.944V167.657Z" fill="#5A5773"/>
<path opacity="0.2" d="M169.258 241.795H86.6768V293.657H169.258V241.795Z" fill="#5A5773"/>
<path opacity="0.2" d="M283.601 241.795H201.02V293.657H283.601V241.795Z" fill="#5A5773"/>
<path opacity="0.2" d="M397.944 241.795H315.362V293.657H397.944V241.795Z" fill="#5A5773"/>
<path d="M263.365 138.942L257.666 140.956L255.597 137.528C254.014 134.891 251.819 131.284 250.199 128.663C247.339 124.054 251.08 117.029 251.08 117.029C251.08 117.029 251.756 109.978 254.162 107.806C256.568 105.633 257.238 117.029 257.238 117.029C266.9 121.417 261.724 131.738 261.724 131.738L262.663 135.83L263.365 138.942Z" fill="#EFB7B9"/>
<path opacity="0.1" d="M263.364 138.942L257.665 140.957L255.597 137.529V137.228C255.597 137.228 258.863 134.987 262.673 135.831L263.364 138.942Z" fill="black"/>
<path d="M254.162 162.041L257.017 159.625L255.587 137.887C255.587 137.887 262.974 132.835 268.441 140.74C268.441 140.74 268.219 145.571 268.441 146.889C268.663 148.208 266.906 149.526 268.441 150.839C269.977 152.153 268.441 156.551 268.441 156.551C268.441 156.551 270.177 159.625 271.275 160.501C272.372 161.376 273.475 168.628 271.275 170.162C269.074 171.697 264.948 175.215 264.948 176.749C264.948 178.284 259.671 182.023 259.671 182.023L255.038 175.9L254.162 162.041Z" fill="#FF6484"/>
<path d="M192.423 294C181.775 289.486 184.139 278.458 186.144 272.905C186.545 271.78 187.015 270.681 187.553 269.614L193.526 265.991C193.526 265.991 194.745 269.097 196.049 273.264C199.072 282.957 202.55 298.298 192.423 294Z" fill="#EFB7B9"/>
<path d="M207.061 394.617C206.34 396.021 205.808 397.514 205.478 399.057C204.951 401.54 204.721 404.077 204.792 406.614C204.835 408.37 204.982 409.52 204.982 409.52L193.12 417.673C193.12 417.673 193.189 416.719 193.305 415.316C193.611 411.582 194.249 404.653 194.851 403.756C195.268 403.134 195.558 400.634 195.743 398.314C195.927 395.993 196.001 393.957 196.001 393.957C196.001 393.957 210.275 388.61 207.061 394.617Z" fill="#EFB7B9"/>
<path d="M235.076 400.465C235.076 400.465 235.076 402.733 234.991 405.37C234.907 408.006 234.748 411.118 234.416 412.568C234.11 413.897 234.089 416.339 234.147 418.591C234.226 421.228 234.416 423.601 234.416 423.601C234.416 423.601 222.306 412.157 223.541 411.25C223.873 411.007 224.2 410.032 224.501 408.734C224.87 407.152 225.203 405.043 225.451 403.25C225.746 401.114 225.931 399.395 225.931 399.395L235.076 400.465Z" fill="#EFB7B9"/>
<path opacity="0.1" d="M207.061 394.617C206.34 396.021 205.808 397.514 205.478 399.057C202.231 398.972 198.99 398.724 195.769 398.314C195.948 396.046 196.027 393.957 196.027 393.957C196.027 393.957 210.274 388.61 207.061 394.617Z" fill="black"/>
<path opacity="0.1" d="M235.076 400.465C235.076 400.465 235.076 402.733 234.992 405.37C231.213 406.335 227.33 404.405 225.451 403.26C225.747 401.125 225.931 399.405 225.931 399.405L235.076 400.465Z" fill="black"/>
<path d="M259.871 288.293C255.038 298.84 253.059 311.35 253.059 311.35L251.302 321.897C251.302 321.897 252.183 326.506 251.302 328.262C250.42 330.019 248.663 332.877 248.663 332.877C248.663 332.877 249.983 343.635 248.663 344.732C247.344 345.829 248.663 352.416 248.663 352.416L244.268 374.566L238.115 403.107C232.184 407.943 224.29 401.794 224.29 401.794L226.031 383.13C226.031 383.13 228.67 350.433 227.572 349.094C226.474 347.754 228.01 343.604 228.01 343.604C228.01 343.604 229.551 339.648 228.453 338.114C227.356 336.579 228.67 333.283 228.67 333.283C228.67 333.283 228.232 319.888 229.551 316.813C230.87 313.739 229.551 294.722 229.551 294.722L229.023 288.799L228.717 285.519L228.691 285.197C228.691 285.197 228.49 286.51 228.163 288.546C227.192 294.743 225.124 307.584 224.306 310.226C223.75 312.13 222.994 313.97 222.052 315.716C222.052 315.716 223.192 322.303 222.052 324.059C220.913 325.815 221.878 327.793 221.878 327.793C221.878 327.793 222.976 333.283 219.678 335.477C216.38 337.671 219.678 338.773 219.678 338.773C219.678 338.773 217.261 344.047 216.385 346.235C215.509 348.424 216.385 351.509 216.385 351.509L214.628 369.292C214.628 369.292 213.087 376.754 213.309 381.806C213.531 386.859 211.33 398.493 211.33 398.493C211.33 398.493 194.413 398.493 191.806 396.515C189.199 394.537 196.159 375.246 196.159 375.246C196.159 375.246 198.138 341.431 197.695 340.555C197.252 339.68 197.695 333.088 199.236 331.775C200.777 330.462 199.236 327.819 199.236 327.819C199.236 327.819 198.798 322.546 199.236 321.233C199.674 319.919 199.167 315.521 199.167 315.521C199.167 315.521 197.695 304.763 197.479 298.614C197.262 292.464 196.159 278.637 196.159 278.637C196.159 278.637 197.31 270.083 197.484 266.011C197.547 264.514 198.217 262.641 199.067 260.88C200.018 258.891 201.111 256.974 202.338 255.142C202.338 255.142 254.394 239.764 256.578 241.293C257.159 241.7 258.003 244.458 258.837 248.45C261.159 259.604 263.428 280.54 259.871 288.293Z" fill="#444053"/>
<path d="M227.799 154.093C236.172 154.093 242.959 147.309 242.959 138.941C242.959 130.574 236.172 123.79 227.799 123.79C219.426 123.79 212.639 130.574 212.639 138.941C212.639 147.309 219.426 154.093 227.799 154.093Z" fill="#A1616A"/>
<path opacity="0.1" d="M258.837 248.46C257.09 249.357 255.919 249.974 255.919 249.974C255.919 249.974 231.313 261.613 224.316 260.954C218.902 260.427 205.082 260.727 199.062 260.875C200.012 258.886 201.106 256.968 202.333 255.137C202.333 255.137 254.394 239.764 256.578 241.294C257.159 241.71 258.003 244.458 258.837 248.46Z" fill="black"/>
<path d="M217.251 163.138C217.251 163.138 203.209 165.353 199.895 167.526C196.582 169.699 190.017 173.896 190.017 182.899C190.017 191.901 188.482 201.125 187.601 203.756C186.719 206.388 201.442 227.688 201.442 227.688L196.165 259.969C196.165 259.969 217.272 259.31 224.301 259.969C231.329 260.628 255.924 248.989 255.924 248.989C255.924 248.989 270.425 241.305 273.501 241.078C276.578 240.852 267.349 224.171 267.349 224.171C267.349 224.171 253.064 197.169 255.481 192.776C257.898 188.383 259.671 182.018 259.671 182.018L257.032 159.626C257.032 159.626 253.08 158.307 249.782 160.723C246.484 163.138 235.282 161.82 235.282 161.82L217.251 163.138Z" fill="#FF6484"/>
<path opacity="0.1" d="M193.416 202.221L187.907 203.755L186.382 224.418C186.382 224.418 188.36 229.908 186.382 231.664C184.403 233.42 183.965 270.969 183.965 270.969C183.965 270.969 190.339 275.578 197.806 272.066C197.806 272.066 196.708 267.894 200.006 252.743C203.304 237.592 203.299 229.908 203.299 229.908C203.299 229.908 203.299 211.023 204.84 207.948C206.381 204.873 204.84 197.19 204.84 197.19C204.84 197.19 201.763 193.018 201.98 191.483C202.196 189.949 193.416 202.221 193.416 202.221Z" fill="black"/>
<path opacity="0.1" d="M196.049 273.279C192.814 274.368 189.292 274.24 186.145 272.921C186.545 271.796 187.016 270.696 187.553 269.63L193.527 266.007C193.527 266.007 194.767 269.113 196.049 273.279Z" fill="black"/>
<path d="M193.083 202.221L187.59 203.756L186.054 224.418C186.054 224.418 188.033 229.908 186.054 231.664C184.076 233.42 183.638 270.969 183.638 270.969C183.638 270.969 190.017 275.573 197.479 272.045C197.479 272.045 196.381 267.874 199.674 252.722C202.967 237.571 202.972 229.887 202.972 229.887C202.972 229.887 202.972 211.002 204.507 207.927C206.043 204.853 204.507 197.169 204.507 197.169C204.507 197.169 201.431 192.997 201.653 191.463C201.874 189.928 193.083 202.221 193.083 202.221Z" fill="#FF6484"/>
<path opacity="0.1" d="M249.328 205.512C249.328 205.512 246.473 230.103 238.12 234.718C238.12 234.718 256.795 229.449 249.328 205.512Z" fill="black"/>
<path opacity="0.1" d="M207.367 207.711C207.367 207.711 217.689 212.758 215.282 216.27C212.876 219.782 207.367 207.711 207.367 207.711Z" fill="black"/>
<path opacity="0.1" d="M207.367 217.81C207.367 217.81 213.958 224.618 212.644 227.033C211.33 229.449 207.367 217.81 207.367 217.81Z" fill="black"/>
<path opacity="0.1" d="M260.531 161.381C260.531 161.381 263.117 165.769 263.365 168.627C263.613 171.485 260.531 161.381 260.531 161.381Z" fill="black"/>
<path opacity="0.1" d="M260.531 155.454C260.531 155.454 261.829 154.352 265.143 155.454C268.457 156.556 260.531 155.454 260.531 155.454Z" fill="black"/>
<path opacity="0.1" d="M247.845 283.789C242.402 284.561 236.851 283.851 231.778 281.733L229.007 288.82L228.701 285.54C229.155 282.787 230.036 279.839 231.778 279.096C231.778 279.096 237.877 283.953 247.845 283.789Z" fill="black"/>
<path opacity="0.1" d="M202.777 293.014C202.777 293.014 216.291 295.814 220.08 295.318L202.777 293.014Z" fill="black"/>
<path opacity="0.1" d="M204.181 296.552C204.181 296.552 209.948 296.304 212.829 297.459L204.181 296.552Z" fill="black"/>
<path opacity="0.1" d="M204.84 298.94C207.471 299.499 210.142 299.852 212.829 299.995L204.84 298.94Z" fill="black"/>
<path opacity="0.1" d="M204.508 329.159C204.756 328.996 216.043 326.359 217.446 328.252L204.508 329.159Z" fill="black"/>
<path opacity="0.1" d="M204.508 332.619C204.508 332.619 214.312 331.464 214.56 332.619C214.808 333.774 204.508 332.619 204.508 332.619Z" fill="black"/>
<path opacity="0.1" d="M204.508 335.746C204.508 335.746 214.972 333.584 216.206 334.111C217.441 334.639 204.508 335.746 204.508 335.746Z" fill="black"/>
<path opacity="0.1" d="M205.004 409.525L193.142 417.678C193.142 417.678 193.21 416.724 193.326 415.321C195.965 408.834 199.4 405.412 199.4 405.412C202.075 404.715 203.764 405.359 204.814 406.619C204.856 408.37 205.004 409.525 205.004 409.525Z" fill="black"/>
<path d="M206.16 416.85C204.483 420.672 203.64 424.807 203.685 428.98C203.752 432.402 202.883 435.777 201.173 438.742C200.926 439.159 200.647 439.558 200.339 439.933C200.339 439.933 192.097 439.865 189.211 437.476C188.886 437.219 188.622 436.896 188.435 436.527C186.783 433.236 191.648 420.637 191.648 420.637C194.202 410.923 199.39 405.733 199.39 405.733C208.629 403.344 206.16 416.85 206.16 416.85Z" fill="#444053"/>
<path opacity="0.1" d="M201.172 438.716C200.925 439.133 200.646 439.532 200.339 439.908C200.339 439.908 192.096 439.839 189.21 437.45C190.629 432.756 195.157 418.554 197.278 420.97C199.273 423.237 200.661 434.149 201.172 438.716Z" fill="black"/>
<path d="M200.043 421.851L199.468 443.125H202.233C202.233 443.125 202.681 424.461 203.916 421.851C205.151 419.24 200.043 421.851 200.043 421.851Z" fill="#444053"/>
<path opacity="0.1" d="M234.416 423.601C234.416 423.601 222.306 412.157 223.541 411.25C223.873 411.007 224.2 410.031 224.501 408.734C226.828 408.328 230.833 409.298 234.147 418.591C234.226 421.227 234.416 423.601 234.416 423.601Z" fill="black"/>
<path d="M236.226 436.364C236.133 436.404 236.036 436.432 235.936 436.448C234.511 436.696 229.261 436.554 226.322 436.448C225.783 436.43 225.273 436.204 224.898 435.818C224.523 435.431 224.312 434.914 224.311 434.376C224.311 433.584 224.311 432.619 224.248 431.591C224.111 428.342 223.72 424.477 222.554 423.607C220.491 422.024 218.86 416.656 222.554 409.858C222.554 409.858 229.636 404.452 234.743 420.701C234.743 420.701 235.239 425.336 237.461 426.982C239.682 428.627 237.218 435.894 236.226 436.364Z" fill="#444053"/>
<path opacity="0.1" d="M235.925 436.448C234.501 436.696 229.25 436.554 226.311 436.448C225.773 436.43 225.262 436.204 224.887 435.818C224.512 435.431 224.302 434.914 224.301 434.376C224.301 433.585 224.301 432.619 224.237 431.591C225.129 427.657 226.411 423.607 228.063 422.684C228.074 422.679 233.071 422.114 235.925 436.448Z" fill="black"/>
<path d="M223.451 422.204L224.781 439.908H226.469V420.695L223.451 422.204Z" fill="#444053"/>
<path opacity="0.1" d="M227.578 114.799C222.791 115.155 218.158 116.643 214.059 119.139C213.003 119.777 211.948 120.553 211.51 121.697C211.13 122.688 211.288 123.806 211.304 124.861C211.447 133.942 201.315 140.814 201.632 149.89C201.759 153.492 203.568 156.846 203.901 160.438C204.455 166.429 200.909 171.94 197.511 176.902C201.012 177.115 204.46 175.973 207.141 173.712C210.727 185.657 211.19 198.321 208.486 210.496H213.346C213.826 210.461 214.309 210.52 214.766 210.67C215.192 210.872 215.574 211.157 215.89 211.508C220.433 216.028 223.478 222.71 221.742 228.88L232.084 225.004C234.559 224.076 237.071 223.132 239.224 221.602C241.377 220.073 243.181 217.853 243.635 215.247C243.915 213.665 243.825 211.777 245.128 210.86C245.771 210.518 246.456 210.265 247.165 210.106C250.004 209.104 251.26 205.823 251.841 202.87C252.547 199.247 252.769 195.546 252.5 191.864C252.041 185.693 250.215 179.428 251.719 173.406C252.569 170.025 254.458 166.877 254.611 163.386C254.859 157.632 250.358 152.675 249.688 146.953C249.218 142.966 250.659 138.931 250.189 134.944C249.928 132.887 249.175 130.922 247.992 129.217C246.81 127.512 245.234 126.118 243.398 125.151C242.126 124.497 240.759 124.06 239.503 123.337C236.638 121.676 234.807 118.686 232.206 116.629C229.604 114.572 225.272 113.797 223.314 116.471L227.578 114.799Z" fill="black"/>
<path d="M227.578 114.14C222.791 114.496 218.158 115.983 214.059 118.48C213.003 119.118 211.948 119.893 211.51 121.038C211.13 122.029 211.288 123.147 211.304 124.202C211.447 133.283 201.315 140.155 201.632 149.236C201.759 152.833 203.568 156.187 203.901 159.784C204.455 165.775 200.909 171.286 197.511 176.253C201.011 176.459 204.457 175.317 207.141 173.063C210.726 185.004 211.189 197.665 208.486 209.836H213.346C213.827 209.803 214.309 209.864 214.766 210.016C215.193 210.214 215.576 210.498 215.89 210.849C220.433 215.374 223.478 222.05 221.742 228.221L232.084 224.344C234.559 223.416 237.071 222.472 239.224 220.943C241.377 219.414 243.181 217.193 243.635 214.588C243.915 213.006 243.825 211.118 245.128 210.2C245.771 209.859 246.456 209.605 247.165 209.446C250.004 208.444 251.26 205.164 251.841 202.211C252.554 198.585 252.781 194.88 252.516 191.194C252.057 185.024 250.231 178.758 251.735 172.736C252.585 169.355 254.474 166.207 254.627 162.716C254.875 156.962 250.374 152.005 249.703 146.283C249.234 142.296 250.674 138.267 250.205 134.275C249.943 132.217 249.189 130.253 248.007 128.548C246.825 126.843 245.249 125.448 243.413 124.481C242.142 123.827 240.775 123.39 239.519 122.672C236.654 121.006 234.823 118.016 232.221 115.959C229.62 113.902 225.288 113.127 223.33 115.801L227.578 114.14Z" fill="#925978"/>
<g opacity="0.1">
<path opacity="0.1" d="M211.294 122.008C211.273 122.211 211.263 122.415 211.263 122.62C211.279 122.419 211.289 122.213 211.294 122.008Z" fill="black"/>
<path opacity="0.1" d="M249.645 143.119C249.835 140.324 250.457 137.518 250.225 134.733C250.051 137.528 249.428 140.334 249.645 143.119Z" fill="black"/>
<path opacity="0.1" d="M203.901 157.015C203.595 153.745 202.07 150.686 201.711 147.422C201.639 148.02 201.613 148.623 201.632 149.225C201.759 152.785 203.526 156.113 203.885 159.657C203.972 158.779 203.978 157.894 203.901 157.015Z" fill="black"/>
<path opacity="0.1" d="M251.756 170.004C251.262 172.15 251.084 174.356 251.228 176.554C251.281 175.272 251.457 173.999 251.756 172.751C252.605 169.371 254.494 166.223 254.647 162.731C254.672 162.111 254.644 161.49 254.563 160.875C254.151 164.013 252.51 166.935 251.756 170.004Z" fill="black"/>
<path opacity="0.1" d="M207.141 170.289C204.94 172.132 202.216 173.239 199.352 173.453C198.751 174.392 198.128 175.31 197.511 176.217C201.011 176.422 204.457 175.28 207.141 173.026C209.069 179.437 210.102 186.083 210.212 192.776C210.369 185.166 209.332 177.579 207.141 170.289Z" fill="black"/>
<path opacity="0.1" d="M251.857 199.447C251.276 202.401 250.02 205.681 247.181 206.677C246.471 206.836 245.785 207.091 245.145 207.437C243.841 208.355 243.931 210.253 243.651 211.825C243.197 214.43 241.398 216.645 239.24 218.153C237.082 219.661 234.575 220.632 232.1 221.56L222.233 225.252C222.182 226.242 222.022 227.223 221.758 228.178L232.1 224.302C234.575 223.374 237.087 222.43 239.24 220.901C241.393 219.371 243.197 217.151 243.651 214.546C243.931 212.964 243.841 211.076 245.145 210.158C245.787 209.817 246.472 209.563 247.181 209.404C250.02 208.402 251.276 205.122 251.857 202.168C252.457 199.095 252.707 195.964 252.601 192.834C252.531 195.055 252.282 197.266 251.857 199.447Z" fill="black"/>
<path opacity="0.1" d="M215.906 208.07C215.592 207.717 215.209 207.432 214.782 207.231C214.324 207.082 213.842 207.021 213.362 207.052H209.051C208.882 207.97 208.703 208.887 208.523 209.8H213.383C213.864 209.766 214.346 209.827 214.803 209.979C215.23 210.177 215.613 210.461 215.927 210.812C219.251 214.124 221.768 218.586 222.201 223.163C222.734 217.689 219.895 212.057 215.906 208.07Z" fill="black"/>
</g>
<path opacity="0.1" d="M191.796 226.043C191.796 226.043 195.722 224.397 196.598 226.043C197.474 227.688 191.796 226.043 191.796 226.043Z" fill="black"/>
<path opacity="0.1" d="M193.184 228.864C193.184 228.864 197.11 227.219 197.991 228.864C198.872 230.509 193.184 228.864 193.184 228.864Z" fill="black"/>
<path opacity="0.1" d="M436.5 15.9381C436.5 15.9381 416.422 14.7304 418.791 28.7901C418.791 28.7901 418.321 31.274 420.575 32.4026C420.575 32.4026 420.612 31.3479 422.633 31.7118C423.352 31.8328 424.084 31.8682 424.812 31.8172C425.795 31.7492 426.729 31.3622 427.471 30.715C427.471 30.715 433.112 28.3893 435.307 19.1709C435.307 19.1709 436.933 17.1563 436.89 16.6395L433.503 18.0897C433.503 18.0897 434.658 20.5315 433.745 22.5619C433.745 22.5619 433.64 18.1741 432.986 18.2796C432.854 18.2796 431.228 19.1234 431.228 19.1234C431.228 19.1234 433.218 23.3793 431.714 26.475C431.714 26.475 432.284 21.2329 430.606 19.4345L428.21 20.8532C428.21 20.8532 430.537 25.2462 428.959 28.8323C428.959 28.8323 429.366 23.3318 427.709 21.1907L425.545 22.873C425.545 22.873 427.735 27.1816 426.416 30.156C426.416 30.156 426.242 23.7484 425.091 23.2685C425.091 23.2685 423.202 24.935 422.917 25.6206C422.917 25.6206 424.411 28.7849 423.482 30.4197C423.482 30.4197 422.912 26.1585 422.427 26.1374C422.427 26.1374 420.543 28.9642 420.348 30.8838C420.439 29.0926 420.998 27.3564 421.968 25.8474C420.881 26.053 419.879 26.5739 419.087 27.3451C419.087 27.3451 419.377 25.3464 422.432 25.1671C422.432 25.1671 423.989 23.0259 424.406 22.8941C424.406 22.8941 421.366 22.641 419.524 23.4584C419.524 23.4584 421.144 21.5704 424.965 22.4036L427.076 20.6633C427.076 20.6633 423.076 20.1359 421.377 20.7213C421.377 20.7213 423.329 19.0548 427.651 20.2678L429.972 18.8808C429.972 18.8808 426.564 18.1425 424.532 18.4114C424.532 18.4114 426.675 17.2565 430.653 18.5064L432.315 17.7628C432.315 17.7628 429.814 17.2723 429.086 17.1932C428.358 17.1141 428.316 16.9137 428.316 16.9137C429.898 16.6505 431.522 16.8331 433.007 17.4411C433.007 17.4411 436.558 16.1596 436.5 15.9381Z" fill="#6A983C"/>
<path opacity="0.1" d="M407.885 4.53613C407.885 4.53613 390.999 15.458 401.241 25.3779C401.241 25.3779 402.333 27.6561 404.819 27.2342C404.819 27.2342 404.228 26.3693 406.069 25.457C406.722 25.1285 407.333 24.723 407.89 24.2493C408.642 23.612 409.166 22.7476 409.383 21.7865C409.383 21.7865 412.549 16.5655 408.856 7.84276C408.856 7.84276 408.972 5.25863 408.613 4.87892L406.745 8.04316C406.745 8.04316 409.125 9.32467 409.594 11.4974C409.594 11.4974 406.908 8.03261 406.428 8.50197C406.333 8.5969 405.51 10.2265 405.51 10.2265C405.51 10.2265 409.642 12.4731 410.259 15.8535C410.259 15.8535 407.621 11.2918 405.188 10.8435L404.091 13.3749C404.091 13.3749 408.576 15.5371 409.431 19.3606C409.431 19.3606 406.492 14.688 403.89 13.9445L403.151 16.5813C403.151 16.5813 407.478 18.7752 408.17 21.9605C408.17 21.9605 404.233 16.9083 403.019 17.2142C403.019 17.2142 402.492 19.6717 402.661 20.3784C402.661 20.3784 405.732 22.0238 405.964 23.9118C405.964 23.9118 402.977 20.8161 402.592 21.0745C402.592 21.0745 402.75 24.4655 403.737 26.1426C402.751 24.6452 402.172 22.9165 402.059 21.1273C401.306 21.9362 400.807 22.9485 400.624 24.0384C400.624 24.0384 399.674 22.2558 402.033 20.3046C402.033 20.3046 402.033 17.6677 402.27 17.3038C402.27 17.3038 399.674 18.8859 398.671 20.6473C398.671 20.6473 398.861 18.1687 402.444 16.5971L403.13 13.9339C403.13 13.9339 399.584 15.8641 398.576 17.3565C398.576 17.3565 399.162 14.8568 403.357 13.2747L404.413 10.7802C404.413 10.7802 401.246 12.2094 399.748 13.628C399.748 13.628 400.803 11.4236 404.74 10.0788L405.637 8.4967C405.637 8.4967 403.331 9.58308 402.698 9.95224C402.064 10.3214 401.911 10.1843 401.911 10.1843C403.029 9.03468 404.445 8.21848 406.001 7.82693C406.001 7.82693 408.064 4.6838 407.885 4.53613Z" fill="#6A983C"/>
<path opacity="0.1" d="M382.186 17.2613C382.186 17.2613 372.092 34.6646 385.722 38.8467C385.722 38.8467 387.732 40.3813 389.753 38.8467C389.753 38.8467 388.84 38.3509 390.064 36.7003C390.49 36.1111 390.844 35.4739 391.12 34.8017C391.501 33.8923 391.577 32.8838 391.336 31.9275C391.336 31.9275 391.785 25.8417 384.529 19.74C384.529 19.74 383.474 17.3879 382.946 17.2139L382.719 20.9055C382.719 20.9055 385.421 20.9688 386.83 22.6933C386.83 22.6933 382.862 20.8211 382.661 21.4487C382.619 21.5752 382.624 23.3999 382.624 23.3999C382.624 23.3999 387.368 23.5423 389.479 26.2741C389.479 26.2741 385.046 23.4105 382.688 24.1066L382.856 26.8595C382.856 26.8595 387.832 26.754 390.328 29.7759C390.328 29.7759 385.579 26.9439 382.941 27.4607L383.469 30.145C383.469 30.145 388.323 30.145 390.381 32.6659C390.381 32.6659 384.577 29.9446 383.632 30.7515C383.632 30.7515 384.271 33.188 384.756 33.7523C384.756 33.7523 388.239 33.8261 389.305 35.4029C389.305 35.4029 385.236 33.9948 385.009 34.4062C385.009 34.4062 386.693 37.3542 388.334 38.3984C386.777 37.5162 385.476 36.2439 384.561 34.7068C384.257 35.7688 384.272 36.8964 384.603 37.9501C384.603 37.9501 382.946 36.7952 384.16 33.9843C384.16 33.9843 382.946 31.6322 383.015 31.205C383.015 31.205 381.432 33.805 381.326 35.8143C381.326 35.8143 380.366 33.5202 382.846 30.4984L382.25 27.8088C382.25 27.8088 379.965 31.1365 379.743 32.9243C379.743 32.9243 379.131 30.4298 382.155 27.1232L381.954 24.4283C381.954 24.4283 379.77 27.1443 379.094 29.0797C379.094 29.0797 379.02 26.6433 381.928 23.6531L382.007 21.8336C382.007 21.8336 380.424 23.8429 380.049 24.4705C379.675 25.0981 379.453 25.0084 379.453 25.0084C379.928 23.4757 380.82 22.1048 382.028 21.0479C382.028 21.0479 382.408 17.3088 382.186 17.2613Z" fill="#6A983C"/>
<path d="M468.858 215.647C467.365 215.647 465.905 216.09 464.663 216.919C463.421 217.748 462.454 218.927 461.882 220.306C461.311 221.685 461.161 223.202 461.452 224.666C461.744 226.13 462.463 227.475 463.519 228.53C464.575 229.586 465.92 230.305 467.385 230.596C468.85 230.887 470.368 230.737 471.748 230.166C473.128 229.595 474.307 228.628 475.137 227.387C475.967 226.146 476.409 224.687 476.409 223.194C476.404 221.194 475.607 219.278 474.192 217.864C472.777 216.45 470.859 215.653 468.858 215.647ZM446.78 156.429V163.975H454.331L467.924 191.494L462.241 200.739C461.621 201.832 461.295 203.068 461.297 204.325C461.297 209.377 464.753 211.871 469.439 211.871H513.59V204.615H470.362C470.236 204.622 470.11 204.603 469.992 204.559C469.874 204.514 469.766 204.445 469.677 204.355C469.588 204.266 469.519 204.159 469.474 204.041C469.429 203.923 469.41 203.797 469.418 203.671C469.517 203.344 469.652 203.03 469.819 202.732L473.592 196.778H501.722C503.081 196.789 504.417 196.425 505.583 195.726C506.749 195.028 507.699 194.021 508.329 192.817L521.927 169.45C522.192 168.856 522.322 168.211 522.307 167.562C522.302 167.076 522.199 166.596 522.005 166.151C521.811 165.706 521.529 165.304 521.177 164.97C520.824 164.635 520.409 164.375 519.954 164.204C519.499 164.033 519.014 163.956 518.529 163.975H462.642L459.054 156.429H446.78ZM506.033 215.647C504.54 215.648 503.081 216.092 501.84 216.922C500.599 217.752 499.632 218.931 499.061 220.31C498.49 221.689 498.341 223.206 498.633 224.67C498.925 226.133 499.645 227.477 500.701 228.532C501.757 229.587 503.103 230.305 504.567 230.596C506.032 230.887 507.55 230.737 508.929 230.166C510.309 229.594 511.488 228.627 512.317 227.386C513.147 226.145 513.59 224.686 513.59 223.194C513.584 221.193 512.786 219.276 511.37 217.862C509.954 216.448 508.035 215.651 506.033 215.647Z" fill="#6A983C"/>
<path d="M496.371 177.308H490.039V170.979H485.29V177.308H478.958V182.054H485.29V188.383H490.039V182.054H496.371V177.308Z" fill="white"/>
</g>
<defs>
<linearGradient id="paint0_linear" x1="323.161" y1="312.088" x2="323.161" y2="50.3848" gradientUnits="userSpaceOnUse">
<stop stop-color="#808080" stop-opacity="0.25"/>
<stop offset="0.54" stop-color="#808080" stop-opacity="0.12"/>
<stop offset="1" stop-color="#808080" stop-opacity="0.1"/>
</linearGradient>
<clipPath id="clip0">
<rect width="589" height="452" fill="white"/>
</clipPath>
</defs>
</svg>
