<svg width="763" height="621" viewBox="0 0 763 621" fill="none" xmlns="http://www.w3.org/2000/svg">
<g clip-path="url(#clip0)">
<path opacity="0.1" d="M287.603 64.7051H238.114C236.086 64.7051 234.441 66.6502 234.441 69.0496V85.5704C234.441 87.9697 236.086 89.9148 238.114 89.9148H287.603C289.631 89.9148 291.276 87.9697 291.276 85.5704V69.0496C291.276 66.6502 289.631 64.7051 287.603 64.7051Z" fill="#3E5A22"/>
<path opacity="0.1" d="M456.685 42.0161H407.196C405.168 42.0161 403.523 43.9612 403.523 46.3606V62.8814C403.523 65.2808 405.168 67.2258 407.196 67.2258H456.685C458.713 67.2258 460.358 65.2808 460.358 62.8814V46.3606C460.358 43.9612 458.713 42.0161 456.685 42.0161Z" fill="#3E5A22"/>
<path opacity="0.1" d="M425.426 298.315H375.938C373.909 298.315 372.265 300.261 372.265 302.66V319.181C372.265 321.58 373.909 323.525 375.938 323.525H425.426C427.454 323.525 429.099 321.58 429.099 319.181V302.66C429.099 300.261 427.454 298.315 425.426 298.315Z" fill="#3E5A22"/>
<path opacity="0.1" d="M451.001 326.046H401.513C399.484 326.046 397.84 327.991 397.84 330.39V346.911C397.84 349.311 399.484 351.256 401.513 351.256H451.001C453.03 351.256 454.674 349.311 454.674 346.911V330.39C454.674 327.991 453.03 326.046 451.001 326.046Z" fill="#3E5A22"/>
<path opacity="0.1" d="M603.033 313.441H553.545C551.516 313.441 549.872 315.387 549.872 317.786V334.307C549.872 336.706 551.516 338.651 553.545 338.651H603.033C605.062 338.651 606.706 336.706 606.706 334.307V317.786C606.706 315.387 605.062 313.441 603.033 313.441Z" fill="#3E5A22"/>
<path opacity="0.1" d="M140.544 333.609H91.0557C89.0272 333.609 87.3828 335.554 87.3828 337.954V354.475C87.3828 356.874 89.0272 358.819 91.0557 358.819H140.544C142.573 358.819 144.217 356.874 144.217 354.475V337.954C144.217 335.554 142.573 333.609 140.544 333.609Z" fill="#3E5A22"/>
<path opacity="0.1" d="M407.665 353.776H358.177C356.148 353.776 354.504 355.721 354.504 358.121V374.642C354.504 377.041 356.148 378.986 358.177 378.986H407.665C409.694 378.986 411.338 377.041 411.338 374.642V358.121C411.338 355.721 409.694 353.776 407.665 353.776Z" fill="#3E5A22"/>
<path d="M510.734 153.116L484.689 63.6888L475.326 65.3694L466.943 66.6383C467.156 63.277 467.525 51.21 462.325 44.8823C461.821 42.7143 460.492 40.2521 457.935 37.4791C445.474 23.9666 442.881 51.6049 442.881 51.6049C442.881 51.6049 440.039 57.4368 436.125 65.5879L434.071 65.1257L433.489 71.1425C424.822 89.2683 413.306 113.797 413.306 116.1C413.306 119.789 411.75 124.696 411.75 124.696C411.75 124.696 402.926 141.889 399.807 150.494C397.992 155.571 395.335 160.165 391.993 164.007C391.993 164.007 391.24 164.687 390.003 165.687C390.082 164.061 390.321 162.451 390.714 160.889C391.851 156.494 394.493 152.73 395.197 148.209C395.361 147.125 395.423 146.023 395.381 144.923C395.545 139.621 393.364 134.402 392.454 129.1C391.396 122.957 391.964 116.192 389.194 110.856C387.062 106.781 383.283 104.243 379.354 103.075C375.745 102.008 372.193 102.386 368.556 101.932C365.217 101.512 362.027 99.7639 358.688 99.1169C356.904 98.6581 355.058 98.6581 353.274 99.1169C347.626 100.957 345.857 109.377 341.495 114.007C339.925 115.688 338 116.848 336.579 118.688C334.512 121.369 333.794 125.108 333.901 128.772C333.874 130 333.935 131.229 334.086 132.444C334.626 136.839 336.061 140.999 336.927 145.31C337.583 148.5 337.938 151.766 337.986 155.049C337.986 155.788 337.986 156.528 337.929 157.259C337.955 158.739 337.622 160.197 336.97 161.461C336.181 162.746 334.881 163.368 333.723 164.192C329.938 160.638 327.097 155.872 325.539 150.461C325.539 150.461 325.347 150.746 325.021 151.301V150.461C325.021 150.461 317.916 138.125 316.837 128.049L319.309 128.352L324.992 33.7732L310.478 31.2523C310.073 26.37 308.972 19.286 306.052 14.118C308.489 8.43744 309.718 0.748468 299.033 -0.016227C286.53 -0.915374 287.297 10.6055 288.625 16.9079C288.023 20.347 287.784 23.8613 287.915 27.3699L275.127 25.1683L275.056 26.3952H272.016L262.709 122.881L270.637 122.411L299.694 125.99C302.017 150.973 305.669 181.847 310.002 189.124C310.146 189.37 310.306 189.603 310.478 189.822V234.031C310.478 234.031 309.96 291.173 301.129 300.358C306.546 298.078 312.276 297.015 318.023 297.223C317.923 297.602 317.824 298.005 317.725 298.433C316.432 304.074 315.531 309.829 315.032 315.643C314.909 316.926 314.798 318.265 314.698 319.66C313.885 332.46 314.035 345.32 315.146 358.088C318.783 403.533 324.495 436.087 324.495 436.087L326.086 462.507C326.086 462.507 324.53 507.338 328.679 522.077C330.243 523.782 332.04 525.16 333.993 526.153C334.029 526.573 334.071 526.993 334.107 527.439C334.143 527.884 334.199 528.573 334.249 529.161C332.388 530.161 328.914 534.128 328.161 549.707C328.161 549.707 329.198 561.379 326.605 566.9C324.012 572.421 325.568 588.396 333.354 590.236C338.33 591.319 343.432 591.319 348.408 590.236C348.408 590.236 352.045 590.236 349.445 574.883L348.99 570.951C348.934 563.346 349.204 555.203 350.482 552.774C353.075 547.859 349.445 542.951 349.445 542.951C349.445 542.951 349.189 543.119 348.77 543.346C348.102 539.102 347.229 532.212 347.541 526.951C347.541 526.506 347.605 526.111 347.648 525.649C349.232 524.67 350.709 523.465 352.045 522.061V463.734C352.045 463.734 351.527 374.071 357.239 372.222C357.239 372.222 359.832 404.768 358.794 420.743C357.757 436.717 360.35 453.91 360.35 453.91L361.387 519.01C361.387 519.01 362.382 519.573 363.988 520.237L363.881 521.422C363.249 528.657 362.233 539.581 361.309 546.27C360.686 546.563 360.131 547.029 359.692 547.629C359.253 548.228 358.943 548.944 358.787 549.716C357.231 555.858 358.269 571.211 355.15 575.514C353.31 578.035 351.108 583.169 352.187 586.799C351.513 589.984 351.811 594.959 359.825 595.782C371.767 597.009 376.96 589.64 376.96 589.64C376.96 589.64 378.516 586.572 376.96 581.043C375.404 575.514 377.479 565.69 377.479 565.69C377.479 565.69 378.594 557.354 376.768 556.262C376.612 555.27 376.47 554.64 376.47 554.64C376.494 552.752 375.907 550.924 374.829 549.531C374.786 543.102 375.006 531.212 376.917 523.38C377.031 522.935 377.145 522.54 377.266 522.077C378.805 521.763 380.289 521.147 381.656 520.254C381.656 520.254 381.137 506.128 384.775 496.305C388.412 486.481 386.331 447.171 386.331 447.171C386.331 447.171 384.775 436.843 386.97 428.474C389.485 419.198 391.371 409.701 392.611 400.071L395.673 374.701C395.673 374.701 403.736 343.819 393.115 312.122C392.682 310.811 392.206 309.501 391.694 308.19C390.813 305.912 389.833 303.627 388.739 301.358C388.568 301.005 388.384 300.644 388.206 300.291C389.322 299.963 389.954 299.77 389.954 299.77C389.954 299.77 375.937 261.115 384.761 241.426C384.761 241.426 389.734 235.544 390.444 229.081C391.325 220.535 392.284 211.998 393.861 203.594L394.138 202.115C394.138 202.115 394.181 201.83 394.252 201.317C394.451 201.166 394.643 201.006 394.834 200.838C409.796 187.914 422.697 133.948 422.697 133.948L426.853 124.705L428.828 119.764L424.779 161.553L456.45 170.797L476.697 168.956L476.64 163.805L492.071 162.385L510.734 153.116ZM309.967 31.2691L304.34 30.2943C303.353 24.286 302.685 20.3448 302.685 20.3448C303.864 18.6204 304.908 16.7725 305.804 14.8239C308.525 19.7482 309.569 26.4708 309.967 31.2354V31.2691ZM288.952 18.3701C289.343 19.9499 289.698 20.9667 289.698 20.9667L290.409 27.8994L288.49 27.5716C288.381 24.4824 288.538 21.388 288.959 18.3365L288.952 18.3701ZM466.417 66.7812L458.801 67.9408C459.874 64.2098 461.203 58.0922 460.428 52.5545C461.173 51.7472 461.75 50.7464 462.112 49.6309C462.474 48.5154 462.613 47.3156 462.517 46.126C467.042 52.5209 466.616 63.8148 466.417 66.756V66.7812ZM453.772 57.1931C456.041 56.2954 458.146 54.8952 459.974 53.0671C460.627 58.504 459.263 64.4787 458.226 68.0249L451.122 69.1005L449.161 68.6551L453.772 57.1931Z" fill="url(#paint0_linear)"/>
<path d="M509.377 154.704L490.842 163.855L469.309 75.0413L474.36 67.9489L483.617 66.2515L509.377 154.704Z" fill="#3E5A22"/>
<path opacity="0.2" d="M509.377 154.704L490.842 163.855L469.309 75.0413L474.36 67.9489L483.617 66.2515L509.377 154.704Z" fill="white"/>
<path d="M474.361 67.9487L442.192 72.831L458.681 166.813L490.842 163.855L474.361 67.9487Z" fill="#3E5A22"/>
<path opacity="0.07" d="M474.361 67.9487L442.192 72.831L458.681 166.813L490.842 163.855L474.361 67.9487Z" fill="white"/>
<path d="M465.999 70.0661L465.487 69.9904C465.487 69.7636 467.618 47.579 455.847 44.7807L455.946 44.1841C468.222 47.1 466.041 69.8392 465.999 70.0661Z" fill="#535461"/>
<path d="M382.438 134.822H347.002V196.174H382.438V134.822Z" fill="#774E55"/>
<path opacity="0.2" d="M382.438 134.822H347.002V196.174H382.438V134.822Z" fill="black"/>
<path d="M475.639 170.351L455.612 172.174L458.696 79.8478L465.367 74.9907L474.609 76.8142L475.639 170.351Z" fill="#3E5A22"/>
<path opacity="0.2" d="M475.639 170.351L455.612 172.174L458.696 79.8478L465.367 74.9907L474.609 76.8142L475.639 170.351Z" fill="black"/>
<path d="M465.366 74.9908L433.532 67.6968L424.289 163.065L455.612 172.174L465.366 74.9908Z" fill="#3E5A22"/>
<path d="M277.934 29.4365H273.309L264.066 124.797L284.605 123.587L277.934 29.4365Z" fill="#3E5A22"/>
<path opacity="0.2" d="M277.934 29.4365H273.309L264.066 124.797L284.605 123.587L277.934 29.4365Z" fill="black"/>
<path d="M276.392 28.2183L270.744 124.192L320.041 130.267L325.689 36.7224L276.392 28.2183Z" fill="#3E5A22"/>
<path d="M335.962 526.304C335.962 526.304 329.802 525.699 328.772 546.96C328.772 546.96 329.802 558.497 327.231 563.968C324.659 569.438 326.201 585.228 333.909 587.052C338.84 588.127 343.896 588.127 348.828 587.052C348.828 587.052 352.422 587.052 349.858 571.867L344.721 527.523L335.962 526.304Z" fill="#5C3D53"/>
<path opacity="0.05" d="M335.962 526.304C335.962 526.304 329.802 525.699 328.772 546.96C328.772 546.96 329.802 558.497 327.231 563.968C324.659 569.438 326.201 585.228 333.909 587.052C338.84 588.127 343.896 588.127 348.828 587.052C348.828 587.052 352.422 587.052 349.858 571.867L344.721 527.523L335.962 526.304Z" fill="black"/>
<path d="M368.251 175.544C367.81 184.586 369.338 189.829 369.338 189.829L355.989 194.081C355.989 194.081 333.909 197.728 342.64 187.359C345.659 183.787 347.144 177.661 347.79 171.191C348.195 166.771 348.321 162.322 348.167 157.88C348.048 153.719 347.745 149.567 347.257 145.443C347.257 145.443 379.61 132.082 372.421 153.947C371.111 157.902 370.078 161.978 369.33 166.132C368.775 169.234 368.414 172.379 368.251 175.544Z" fill="#F8BDC5"/>
<path opacity="0.1" d="M372.421 153.956C371.111 157.911 370.078 161.986 369.331 166.14C365.501 167.103 361.525 166.846 357.806 165.397C354.088 163.947 350.762 161.356 348.167 157.888C348.049 153.727 347.745 149.576 347.258 145.452C347.258 145.452 379.611 132.09 372.421 153.956Z" fill="black"/>
<path d="M364.72 165.493C376.914 165.493 386.8 153.8 386.8 139.376C386.8 124.952 376.914 113.259 364.72 113.259C352.525 113.259 342.64 124.952 342.64 139.376C342.64 153.8 352.525 165.493 364.72 165.493Z" fill="#F8BDC5"/>
<path d="M325.689 152.133V160.032L314.393 194.653L311.31 191.006C311.14 190.79 310.983 190.56 310.841 190.317C303.381 177.779 297.954 94.4274 297.954 94.4274L290.771 23.9494C290.771 23.9494 283.07 2.10097 300.007 3.29423C316.943 4.48749 303.602 23.336 303.602 23.336C303.602 23.336 314.897 90.1502 313.356 92.5787C311.814 95.0073 313.356 102.301 313.356 102.301C313.356 102.301 317.981 116.276 317.462 126.595C316.943 136.914 325.689 152.133 325.689 152.133Z" fill="#F8BDC5"/>
<path d="M453.04 59.8059L426.335 126.62L422.229 135.712C422.229 135.712 409.441 189.09 394.671 201.871C393.822 202.621 392.902 203.25 391.929 203.745L388.846 174.586L391.687 166.115L391.901 165.468C395.196 161.667 397.814 157.124 399.602 152.107C402.685 143.603 411.416 126.595 411.416 126.595C411.416 126.595 412.958 121.738 412.958 118.091C412.958 114.444 442.227 54.3102 442.227 54.3102C442.227 54.3102 444.792 26.9745 457.146 40.3356C469.501 53.6968 453.04 59.8059 453.04 59.8059Z" fill="#F8BDC5"/>
<path d="M349.822 544.522C349.822 544.522 332.36 553.027 334.413 545.127C335.663 540.338 335.202 531.287 334.648 524.96C334.292 520.834 333.895 517.825 333.895 517.825L348.814 519.649C348.292 521.188 348.001 522.823 347.954 524.481C347.464 532.539 349.822 544.522 349.822 544.522Z" fill="#F8BDC5"/>
<path d="M376.974 520.892C374.282 531.951 374.985 551.211 374.985 551.211C374.985 551.211 359.064 553.639 360.606 548.782C361.679 545.421 363.249 528.766 364.101 518.976C364.478 514.699 364.712 511.732 364.712 511.732L379.091 515.379C378.112 517.052 377.395 518.919 376.974 520.892Z" fill="#F8BDC5"/>
<path opacity="0.1" d="M333.901 517.8L348.82 519.623C348.299 521.163 348.008 522.798 347.961 524.455C345.921 525.718 343.666 526.417 341.365 526.5C339.064 526.583 336.777 526.048 334.676 524.934C334.299 520.8 333.901 517.8 333.901 517.8Z" fill="black"/>
<path opacity="0.1" d="M379.099 515.371C378.114 517.045 377.392 518.915 376.967 520.892C372.115 521.816 367.021 520.195 364.102 518.976C364.478 514.699 364.713 511.732 364.713 511.732L379.099 515.371Z" fill="black"/>
<path d="M395.531 373.835L392.505 398.927C391.277 408.452 389.409 417.845 386.921 427.019C384.747 435.296 386.288 445.506 386.288 445.506C386.288 445.506 388.341 484.38 384.747 494.102C381.152 503.825 381.663 517.791 381.663 517.791C373.444 523.262 361.636 516.573 361.636 516.573L360.606 452.187C360.606 452.187 358.042 435.179 359.065 419.414C360.088 403.65 357.523 371.432 357.523 371.432C351.84 373.255 352.387 461.935 352.387 461.935V519.64C340.061 532.396 329.276 519.64 329.276 519.64C325.17 505.06 326.712 460.716 326.712 460.716L325.17 434.599C325.17 434.599 319.487 402.406 315.935 357.457C314.836 344.828 314.689 332.109 315.494 319.449C315.594 318.071 315.702 316.746 315.821 315.474C316.313 309.726 317.202 304.035 318.478 298.458C318.885 296.619 319.408 294.818 320.041 293.071L375.22 296.105L378.474 296.281L386.288 296.71C387.141 298.231 387.944 299.777 388.69 301.323C389.769 303.567 390.743 305.827 391.609 308.046C392.107 309.34 392.576 310.642 393.03 311.937C403.523 343.272 395.531 373.835 395.531 373.835Z" fill="#5E52AD"/>
<path opacity="0.1" d="M334.932 299.13C334.932 299.13 332.516 327.701 315.487 319.433C315.587 318.055 315.696 316.73 315.814 315.458C319.821 316.744 330.911 318.517 331.33 299.122L334.932 299.13Z" fill="black"/>
<path opacity="0.1" d="M393.002 311.946C381.209 316.929 376.762 303.66 375.241 296.089L378.495 296.265C380.264 308.173 387.326 308.87 391.624 308.03C392.107 309.358 392.568 310.66 393.002 311.946Z" fill="black"/>
<path d="M340.536 541.295C337.915 540.808 333.908 539.102 335.166 533.144C335.166 533.144 330.313 531.161 330.825 554.85C330.825 554.85 330.313 566.387 329.283 568.824C328.253 571.261 329.283 585.833 340.067 584.614C340.067 584.614 347.769 587.648 349.822 582.791C349.822 582.791 348.28 554.85 350.852 550.018C353.424 545.186 349.822 540.295 349.822 540.295C349.822 540.295 346.184 542.682 343.57 541.976C342.575 541.648 341.552 541.489 340.536 541.295Z" fill="#5C3D53"/>
<path d="M353.417 580.967C353.417 580.967 348.28 591.294 360.095 592.504C371.909 593.714 377.038 586.429 377.038 586.429C377.038 586.429 378.58 583.395 377.038 577.925C375.497 572.454 377.55 562.74 377.55 562.74C377.55 562.74 379.092 551.202 375.497 553.631C371.902 556.059 353.417 580.967 353.417 580.967Z" fill="#5C3D53"/>
<path opacity="0.05" d="M353.417 580.967C353.417 580.967 348.28 591.294 360.095 592.504C371.909 593.714 377.038 586.429 377.038 586.429C377.038 586.429 378.58 583.395 377.038 577.925C375.497 572.454 377.55 562.74 377.55 562.74C377.55 562.74 379.092 551.202 375.497 553.631C371.902 556.059 353.417 580.967 353.417 580.967Z" fill="black"/>
<path d="M366.773 543.918C366.773 543.918 360.614 540.884 359.072 546.951C357.531 553.018 358.561 568.211 355.478 572.463C352.394 576.715 348.288 588.253 360.614 587.648C372.94 587.043 375.533 582.177 375.533 582.177C375.533 582.177 375.021 566.993 376.563 562.741C378.105 558.489 376.563 551.817 376.563 551.817C376.563 551.817 377.039 543.271 366.773 543.918Z" fill="#5C3D53"/>
<path opacity="0.2" d="M289.741 37.9408C290.31 37.9408 290.771 37.3953 290.771 36.7224C290.771 36.0494 290.31 35.5039 289.741 35.5039C289.172 35.5039 288.711 36.0494 288.711 36.7224C288.711 37.3953 289.172 37.9408 289.741 37.9408Z" fill="black"/>
<path opacity="0.2" d="M311.309 40.974C311.878 40.974 312.34 40.4285 312.34 39.7556C312.34 39.0826 311.878 38.5371 311.309 38.5371C310.741 38.5371 310.279 39.0826 310.279 39.7556C310.279 40.4285 310.741 40.974 311.309 40.974Z" fill="black"/>
<path d="M311.566 39.764H311.054C311.054 39.5035 311.417 13.882 298.977 11.5207C296.526 11.0585 294.523 11.714 293.024 13.4703C287.887 19.4954 290.011 36.512 290.033 36.68L289.528 36.7725C289.436 36.0582 287.347 19.2769 292.668 13.0417C294.288 11.1342 296.448 10.4199 299.062 10.9157C311.935 13.3526 311.573 39.5035 311.566 39.764Z" fill="#535461"/>
<path d="M456.869 73.9065L456.408 73.646C456.486 73.4444 464.4 53.1673 453.942 46.1002L454.198 45.5708C465.061 52.9152 456.955 73.6965 456.869 73.9065Z" fill="#535461"/>
<path opacity="0.1" d="M369.338 189.796L355.989 194.048C355.989 194.048 333.909 197.695 342.64 187.325C345.659 183.754 347.144 177.628 347.79 171.157C351.279 177.628 355.477 175.787 355.477 175.787L368.208 175.493H368.258C367.81 184.586 369.338 189.796 369.338 189.796Z" fill="black"/>
<path opacity="0.1" d="M394.679 201.888C393.83 202.638 392.91 203.267 391.937 203.762L388.854 174.603L391.695 166.132L392.406 165.485C398.821 167.645 395.51 195.577 394.679 201.888Z" fill="black"/>
<path opacity="0.1" d="M325.689 152.132V160.031L314.393 194.653L311.31 191.006C311.14 190.79 310.983 190.559 310.841 190.317C312.176 172.267 325.689 152.132 325.689 152.132Z" fill="black"/>
<path opacity="0.1" d="M388.682 301.307C381.5 303.433 344.003 313.853 332.878 303.987C328.487 300.097 323.316 298.668 318.478 298.441C318.885 296.602 319.407 294.802 320.04 293.055L375.219 296.088L378.473 296.265L386.288 296.693C387.14 298.223 387.936 299.76 388.682 301.307Z" fill="black"/>
<path d="M292.058 8.479C292.058 8.479 299.759 23.6637 304.895 8.479H292.058Z" fill="#F8BDC5"/>
<path d="M450.475 39.7559C450.475 39.7559 447.392 57.9825 459.711 49.4784L450.475 39.7559Z" fill="#F8BDC5"/>
<g opacity="0.1">
<path opacity="0.1" d="M355.136 377.423C354.888 373.726 354.703 371.415 354.703 371.415C349.02 373.239 349.567 461.918 349.567 461.918V519.623C345.958 523.354 342.462 524.9 339.372 525.228C343.08 525.615 347.499 524.388 352.16 519.623V461.918C352.16 461.918 351.762 397.658 355.136 377.423Z" fill="black"/>
<path opacity="0.1" d="M392.746 311.945C392.313 310.651 391.851 309.349 391.325 308.055C390.459 305.803 389.485 303.542 388.405 301.332C387.695 299.786 386.857 298.248 386.004 296.719L378.189 296.29L374.936 296.114L319.757 293.08L319.707 293.215L372.371 296.114L375.625 296.29L383.44 296.719C384.292 298.24 385.095 299.786 385.841 301.332C386.921 303.576 387.894 305.836 388.761 308.055C389.258 309.349 389.727 310.651 390.181 311.945C400.682 343.289 392.711 373.835 392.711 373.835L389.684 398.927C388.456 408.452 386.589 417.846 384.1 427.019C381.926 435.297 383.468 445.507 383.468 445.507C383.468 445.507 385.521 484.38 381.926 494.103C378.332 503.825 378.843 517.791 378.843 517.791C376.859 519.058 374.659 519.776 372.407 519.892C375.515 520.223 378.639 519.494 381.408 517.791C381.408 517.791 380.896 503.817 384.491 494.103C388.086 484.388 386.033 445.507 386.033 445.507C386.033 445.507 384.491 435.288 386.665 427.019C389.154 417.846 391.021 408.452 392.249 398.927L395.275 373.835C395.275 373.835 403.246 343.273 392.746 311.945Z" fill="black"/>
</g>
<path d="M368.208 176.737C375.312 180.695 391.936 165.493 391.936 165.493C399.126 167.922 393.989 203.157 393.989 203.157L393.712 204.619C392.149 212.93 391.205 221.375 390.331 229.829C389.67 236.207 384.747 242.039 384.747 242.039C376.016 261.475 389.883 299.744 389.883 299.744C389.883 299.744 345.204 313.718 332.885 302.777C320.567 291.836 302.074 300.349 302.074 300.349C310.805 291.24 311.31 234.745 311.31 234.745V191.048C312.34 172.821 326.229 152.174 326.229 152.174C331.912 171.006 347.705 172.25 347.705 172.25C351.207 178.972 355.52 177.082 355.52 177.082L368.208 176.737Z" fill="#EB6475"/>
<path opacity="0.1" d="M358.973 102.57C357.21 102.117 355.386 102.117 353.623 102.57C348.039 104.394 346.284 112.721 341.972 117.293C340.423 118.973 338.512 120.099 337.106 121.923C334.605 125.167 334.101 129.973 334.633 134.318C335.166 138.662 336.587 142.78 337.475 147.04C338.352 151.305 338.685 155.701 338.463 160.082C338.482 161.536 338.152 162.967 337.511 164.208C336.48 165.889 334.584 166.418 333.248 167.763C329.17 171.914 332.538 180.527 329.547 185.83C328.261 188.124 325.852 189.636 325.362 192.325C325.014 194.233 325.753 196.157 326.478 197.913C328.382 202.535 330.357 207.283 333.582 210.728C336.807 214.174 340.793 215.905 344.757 217.661C345.958 218.191 347.464 218.653 348.38 217.602C349.51 216.291 348.657 214.073 347.876 212.451C346.64 209.93 345.673 206.888 346.398 204.048C347.123 201.208 349.446 199.325 351.009 196.956C355.037 190.821 353.715 182.015 351.719 174.62C350.874 171.502 349.922 168.183 350.639 165.015C350.945 163.653 351.549 162.418 351.932 161.082C353.637 155.133 350.774 148.603 351.613 142.402C352.049 139.98 352.766 137.641 353.744 135.452L358.255 123.982C358.709 122.601 359.387 121.339 360.251 120.268C361.653 118.934 363.43 118.28 365.224 118.436C367.053 118.484 368.854 118.971 370.519 119.869C372.184 120.766 373.677 122.054 374.908 123.654C379.738 130.007 379.433 139.62 378.85 148.091L378.431 154.208C378.126 158.612 377.721 163.309 375.376 166.737C373.551 169.393 370.602 171.2 369.849 174.51C369.196 177.359 370.425 180.452 369.778 183.3C368.812 187.561 364.365 189.099 362.013 192.544C361.024 194.041 360.44 195.856 360.336 197.753C360.232 199.649 360.613 201.538 361.431 203.174C362.326 204.855 363.754 206.535 363.562 208.51C363.399 210.098 362.191 211.384 362.198 212.981C362.256 213.695 362.495 214.372 362.884 214.922C363.274 215.473 363.795 215.871 364.379 216.065C365.555 216.425 366.781 216.493 367.981 216.266L380.719 214.905C381.516 214.901 382.299 214.646 382.985 214.165C383.873 213.409 384.164 212.014 384.285 210.728C384.797 205.367 383.575 199.51 385.841 194.821C386.551 193.317 387.596 192.065 388.384 190.619C392.732 182.552 388.349 171.611 390.715 162.46C391.837 158.116 394.451 154.385 395.148 149.923C396.071 143.973 393.45 138.158 392.434 132.276C391.39 126.2 391.951 119.511 389.208 114.226C387.113 110.192 383.362 107.679 379.483 106.528C375.931 105.469 372.378 105.848 368.826 105.394C365.43 104.932 362.276 103.201 358.973 102.57Z" fill="black"/>
<path d="M358.973 101.352C357.21 100.898 355.386 100.898 353.623 101.352C348.039 103.175 346.284 111.503 341.972 116.074C340.423 117.755 338.512 118.881 337.106 120.704C334.605 123.948 334.101 128.755 334.633 133.099C335.166 137.443 336.587 141.561 337.475 145.821C338.352 150.086 338.685 154.482 338.463 158.863C338.482 160.318 338.152 161.749 337.511 162.989C336.48 164.67 334.584 165.199 333.248 166.544C329.17 170.695 332.538 179.308 329.547 184.611C328.261 186.905 325.852 188.418 325.362 191.107C325.014 193.014 325.753 194.938 326.478 196.695C328.382 201.317 330.357 206.064 333.582 209.51C336.807 212.955 340.793 214.686 344.757 216.442C345.958 216.972 347.464 217.434 348.38 216.384C349.51 215.073 348.657 212.854 347.876 211.232C346.64 208.711 345.673 205.669 346.398 202.829C347.123 199.989 349.446 198.106 351.009 195.737C355.037 189.602 353.715 180.796 351.719 173.401C350.874 170.283 349.922 166.964 350.639 163.796C350.945 162.435 351.549 161.199 351.932 159.863C353.637 153.914 350.774 147.384 351.613 141.183C352.049 138.761 352.766 136.423 353.744 134.233L358.255 122.763C358.709 121.383 359.387 120.121 360.251 119.049C361.653 117.715 363.43 117.061 365.224 117.217C367.053 117.265 368.854 117.753 370.519 118.65C372.184 119.547 373.677 120.835 374.908 122.435C379.738 128.788 379.433 138.401 378.85 146.872L378.431 152.989C378.126 157.393 377.721 162.09 375.376 165.519C373.551 168.174 370.602 169.981 369.849 173.292C369.196 176.14 370.425 179.233 369.778 182.081C368.812 186.342 364.365 187.88 362.013 191.325C361.024 192.822 360.44 194.638 360.336 196.534C360.232 198.43 360.613 200.319 361.431 201.955C362.326 203.636 363.754 205.316 363.562 207.291C363.399 208.879 362.191 210.165 362.198 211.762C362.256 212.476 362.495 213.153 362.884 213.704C363.274 214.254 363.795 214.652 364.379 214.846C365.555 215.206 366.781 215.275 367.981 215.047L380.719 213.686C381.516 213.682 382.299 213.427 382.985 212.947C383.873 212.19 384.164 210.795 384.285 209.51C384.797 204.148 383.575 198.291 385.841 193.602C386.551 192.098 387.596 190.846 388.384 189.401C392.732 181.334 388.349 170.393 390.715 161.241C391.837 156.897 394.451 153.166 395.148 148.704C396.071 142.754 393.45 136.939 392.434 131.057C391.39 124.981 391.951 118.292 389.208 113.007C387.113 108.973 383.362 106.461 379.483 105.309C375.931 104.251 372.378 104.629 368.826 104.175C365.43 103.721 362.276 101.99 358.973 101.352Z" fill="#774E55"/>
<path opacity="0.1" d="M331.593 240.509C331.593 240.509 341.866 244.156 356.756 236.257H364.45C364.45 236.257 364.962 244.761 384.989 241.114" fill="black"/>
<path opacity="0.1" d="M381.5 621C592.197 621 763 602.565 763 579.824C763 557.084 592.197 538.648 381.5 538.648C170.803 538.648 0 557.084 0 579.824C0 602.565 170.803 621 381.5 621Z" fill="#3E5A22"/>
<path opacity="0.1" d="M232.19 216.804H182.701C180.673 216.804 179.028 218.749 179.028 221.148V237.669C179.028 240.068 180.673 242.013 182.701 242.013H232.19C234.218 242.013 235.863 240.068 235.863 237.669V221.148C235.863 218.749 234.218 216.804 232.19 216.804Z" fill="#3E5A22"/>
<path opacity="0.1" d="M257.765 244.534H208.276C206.248 244.534 204.604 246.479 204.604 248.879V265.399C204.604 267.799 206.248 269.744 208.276 269.744H257.765C259.793 269.744 261.438 267.799 261.438 265.399V248.879C261.438 246.479 259.793 244.534 257.765 244.534Z" fill="#3E5A22"/>
<path opacity="0.1" d="M481.55 218.484H432.062C430.033 218.484 428.389 220.429 428.389 222.829V239.35C428.389 241.749 430.033 243.694 432.062 243.694H481.55C483.578 243.694 485.223 241.749 485.223 239.35V222.829C485.223 220.429 483.578 218.484 481.55 218.484Z" fill="#3E5A22"/>
<path opacity="0.1" d="M507.125 246.215H457.637C455.608 246.215 453.964 248.16 453.964 250.56V267.081C453.964 269.48 455.608 271.425 457.637 271.425H507.125C509.154 271.425 510.798 269.48 510.798 267.081V250.56C510.798 248.16 509.154 246.215 507.125 246.215Z" fill="#3E5A22"/>
<path opacity="0.1" d="M214.429 272.266H164.94C162.912 272.266 161.268 274.211 161.268 276.61V293.131C161.268 295.53 162.912 297.475 164.94 297.475H214.429C216.457 297.475 218.102 295.53 218.102 293.131V276.61C218.102 274.211 216.457 272.266 214.429 272.266Z" fill="#3E5A22"/>
<path opacity="0.1" d="M271.263 370.583H221.774C219.746 370.583 218.102 372.528 218.102 374.928V391.448C218.102 393.848 219.746 395.793 221.774 395.793H271.263C273.291 395.793 274.936 393.848 274.936 391.448V374.928C274.936 372.528 273.291 370.583 271.263 370.583Z" fill="#3E5A22"/>
<path opacity="0.1" d="M296.838 398.313H247.35C245.321 398.313 243.677 400.259 243.677 402.658V419.179C243.677 421.578 245.321 423.523 247.35 423.523H296.838C298.867 423.523 300.511 421.578 300.511 419.179V402.658C300.511 400.259 298.867 398.313 296.838 398.313Z" fill="#3E5A22"/>
<path opacity="0.1" d="M253.502 426.045H204.014C201.985 426.045 200.341 427.99 200.341 430.389V446.91C200.341 449.31 201.985 451.255 204.014 451.255H253.502C255.531 451.255 257.175 449.31 257.175 446.91V430.389C257.175 427.99 255.531 426.045 253.502 426.045Z" fill="#3E5A22"/>
<path opacity="0.1" d="M500.021 441.171H450.532C448.504 441.171 446.859 443.116 446.859 445.515V462.036C446.859 464.436 448.504 466.381 450.532 466.381H500.021C502.049 466.381 503.694 464.436 503.694 462.036V445.515C503.694 443.116 502.049 441.171 500.021 441.171Z" fill="#3E5A22"/>
<path opacity="0.1" d="M456.685 468.901H407.196C405.168 468.901 403.523 470.846 403.523 473.246V489.767C403.523 492.166 405.168 494.111 407.196 494.111H456.685C458.713 494.111 460.358 492.166 460.358 489.767V473.246C460.358 470.846 458.713 468.901 456.685 468.901Z" fill="#3E5A22"/>
<g opacity="0.1">
<path opacity="0.1" d="M671.539 557.463C671.539 557.463 661.252 495.817 682.437 453.565C691.417 435.912 695.313 415.289 693.541 394.793C692.628 385.071 690.963 375.468 688.568 366.104" stroke="#535461" stroke-width="2" stroke-miterlimit="10"/>
<path opacity="0.1" d="M701.796 339.382C701.227 346.735 688.298 366.844 688.298 366.844C688.298 366.844 678.693 344.29 679.268 336.929C679.599 333.45 681.069 330.264 683.364 328.053C685.658 325.842 688.594 324.783 691.541 325.103C694.488 325.423 697.212 327.096 699.127 329.764C701.043 332.432 701.999 335.882 701.789 339.374L701.796 339.382Z" fill="#3E5A22"/>
<path opacity="0.1" d="M717.248 382.155C713.39 387.962 693.307 396.542 693.307 396.542C693.307 396.542 695.608 371.433 699.466 365.626C700.357 364.161 701.49 362.924 702.796 361.99C704.102 361.056 705.555 360.444 707.066 360.192C708.577 359.94 710.116 360.052 711.59 360.521C713.063 360.991 714.441 361.808 715.641 362.925C716.84 364.041 717.836 365.433 718.569 367.017C719.302 368.6 719.756 370.343 719.904 372.14C720.052 373.936 719.891 375.75 719.431 377.471C718.971 379.193 718.221 380.786 717.227 382.155H717.248Z" fill="#3E5A22"/>
<path opacity="0.1" d="M711.025 451.675C705.214 454.38 684.221 449.792 684.221 449.792C684.221 449.792 696.923 429.49 702.734 426.784C705.513 425.549 708.591 425.655 711.305 427.08C714.018 428.506 716.148 431.136 717.237 434.403C718.325 437.67 718.283 441.312 717.121 444.543C715.959 447.775 713.77 450.336 711.025 451.675Z" fill="#3E5A22"/>
<path opacity="0.1" d="M696.297 503.061C690.955 506.893 669.606 506.565 669.606 506.565C669.606 506.565 679.226 484.02 684.568 480.188C685.838 479.242 687.255 478.605 688.736 478.313C690.216 478.022 691.731 478.082 693.192 478.49C694.653 478.898 696.03 479.646 697.244 480.69C698.458 481.734 699.484 483.054 700.263 484.572C701.041 486.09 701.556 487.776 701.778 489.532C702 491.288 701.924 493.079 701.555 494.799C701.186 496.52 700.531 498.137 699.628 499.556C698.726 500.974 697.593 502.166 696.297 503.061Z" fill="#3E5A22"/>
<path opacity="0.1" d="M669.55 395.373C673.614 400.986 693.982 408.549 693.982 408.549C693.982 408.549 690.785 383.575 686.728 377.97C685.77 376.607 684.592 375.483 683.263 374.663C681.933 373.843 680.48 373.344 678.986 373.195C677.493 373.046 675.989 373.249 674.562 373.793C673.136 374.337 671.815 375.212 670.676 376.365C669.538 377.518 668.605 378.928 667.931 380.511C667.257 382.095 666.856 383.822 666.751 385.59C666.647 387.359 666.84 389.134 667.321 390.814C667.801 392.493 668.559 394.043 669.55 395.373Z" fill="#3E5A22"/>
<path opacity="0.1" d="M652.968 455.725C658.261 459.641 679.616 459.65 679.616 459.65C679.616 459.65 670.253 436.961 664.953 433.037C663.693 432.077 662.285 431.423 660.81 431.113C659.335 430.803 657.822 430.842 656.36 431.229C654.898 431.616 653.516 432.343 652.293 433.367C651.07 434.391 650.032 435.692 649.238 437.195C648.444 438.698 647.91 440.373 647.668 442.122C647.426 443.871 647.48 445.659 647.827 447.383C648.174 449.107 648.807 450.732 649.69 452.164C650.572 453.596 651.687 454.807 652.968 455.725Z" fill="#3E5A22"/>
<path opacity="0.1" d="M643.648 516.976C648.308 521.892 669.351 526.178 669.351 526.178C669.351 526.178 663.362 501.935 658.694 497.019C657.597 495.78 656.299 494.816 654.88 494.183C653.46 493.55 651.948 493.261 650.432 493.333C648.916 493.406 647.428 493.838 646.057 494.605C644.685 495.372 643.458 496.457 642.448 497.796C641.438 499.135 640.667 500.701 640.179 502.4C639.692 504.1 639.498 505.898 639.61 507.687C639.722 509.477 640.137 511.221 640.831 512.817C641.524 514.413 642.482 515.828 643.648 516.976Z" fill="#3E5A22"/>
</g>
<g opacity="0.1">
<path opacity="0.1" d="M582.288 543.934C582.288 543.934 576.768 510.833 588.135 488.145C592.957 478.664 595.048 467.588 594.096 456.582C593.609 451.362 592.72 446.206 591.439 441.179" stroke="#535461" stroke-width="2" stroke-miterlimit="10"/>
<path opacity="0.1" d="M598.536 426.826C598.231 430.776 591.29 441.574 591.29 441.574C591.29 441.574 586.132 429.465 586.438 425.515C586.668 423.702 587.477 422.062 588.696 420.93C589.916 419.799 591.456 419.262 593 419.429C594.543 419.597 595.974 420.456 597 421.832C598.025 423.207 598.567 424.994 598.515 426.826H598.536Z" fill="#3E5A22"/>
<path opacity="0.1" d="M606.826 449.792C604.752 452.91 593.968 457.515 593.968 457.515C593.968 457.515 595.204 444.07 597.278 440.918C598.291 439.485 599.736 438.574 601.307 438.379C602.878 438.184 604.451 438.721 605.693 439.875C606.935 441.029 607.748 442.71 607.959 444.562C608.171 446.413 607.765 448.289 606.826 449.792Z" fill="#3E5A22"/>
<path opacity="0.1" d="M603.488 487.136C600.369 488.59 589.095 486.128 589.095 486.128C589.095 486.128 595.915 475.204 599.041 473.775C600.526 473.145 602.161 473.224 603.598 473.994C605.035 474.764 606.163 476.166 606.742 477.903C607.32 479.639 607.305 481.574 606.699 483.297C606.093 485.02 604.944 486.397 603.495 487.136H603.488Z" fill="#3E5A22"/>
<path opacity="0.1" d="M595.581 514.699C592.74 516.757 581.252 516.581 581.252 516.581C581.252 516.581 586.417 504.472 589.287 502.413C589.969 501.897 590.732 501.548 591.53 501.386C592.328 501.224 593.146 501.252 593.935 501.469C594.723 501.686 595.468 502.088 596.123 502.65C596.779 503.212 597.333 503.924 597.753 504.743C598.172 505.563 598.449 506.473 598.567 507.421C598.685 508.368 598.642 509.334 598.439 510.262C598.237 511.189 597.88 512.06 597.389 512.822C596.898 513.584 596.284 514.222 595.581 514.699Z" fill="#3E5A22"/>
<path opacity="0.1" d="M581.216 456.901C583.397 459.918 594.338 463.977 594.338 463.977C594.338 463.977 592.626 450.531 590.445 447.557C589.397 446.108 587.906 445.211 586.299 445.063C584.692 444.915 583.101 445.528 581.877 446.767C580.652 448.006 579.894 449.77 579.768 451.67C579.643 453.571 580.161 455.452 581.209 456.901H581.216Z" fill="#3E5A22"/>
<path opacity="0.1" d="M572.315 489.296C575.156 491.397 586.623 491.405 586.623 491.405C586.623 491.405 581.593 479.221 578.751 477.12C577.386 476.147 575.752 475.847 574.202 476.286C572.652 476.725 571.31 477.868 570.465 479.466C569.62 481.065 569.341 482.993 569.687 484.833C570.033 486.674 570.977 488.28 572.315 489.304V489.296Z" fill="#3E5A22"/>
<path opacity="0.1" d="M567.32 522.186C569.821 524.825 581.124 527.127 581.124 527.127C581.124 527.127 577.913 514.111 575.44 511.472C574.233 510.243 572.667 509.623 571.077 509.747C569.488 509.871 568.003 510.728 566.943 512.134C565.883 513.54 565.332 515.382 565.409 517.264C565.487 519.146 566.185 520.916 567.356 522.194L567.32 522.186Z" fill="#3E5A22"/>
</g>
<g opacity="0.1">
<path opacity="0.1" d="M132.586 548.976C132.586 548.976 127.066 515.875 138.433 493.186C143.255 483.706 145.346 472.63 144.393 461.624C143.907 456.404 143.018 451.248 141.736 446.221" stroke="#535461" stroke-width="2" stroke-miterlimit="10"/>
<path opacity="0.1" d="M148.834 431.868C148.529 435.818 141.588 446.616 141.588 446.616C141.588 446.616 136.43 434.507 136.736 430.557C136.966 428.744 137.774 427.104 138.994 425.972C140.214 424.841 141.754 424.304 143.297 424.471C144.841 424.639 146.272 425.498 147.298 426.874C148.323 428.249 148.865 430.036 148.813 431.868H148.834Z" fill="#3E5A22"/>
<path opacity="0.1" d="M157.124 454.834C155.05 457.952 144.266 462.557 144.266 462.557C144.266 462.557 145.502 449.112 147.576 445.96C148.589 444.527 150.034 443.616 151.605 443.421C153.175 443.226 154.749 443.763 155.991 444.917C157.232 446.071 158.045 447.752 158.257 449.604C158.469 451.455 158.063 453.331 157.124 454.834Z" fill="#3E5A22"/>
<path opacity="0.1" d="M153.786 492.178C150.667 493.632 139.393 491.17 139.393 491.17C139.393 491.17 146.213 480.246 149.339 478.817C150.824 478.187 152.458 478.266 153.896 479.036C155.333 479.806 156.461 481.208 157.039 482.945C157.618 484.681 157.603 486.616 156.997 488.339C156.391 490.062 155.242 491.439 153.793 492.178H153.786Z" fill="#3E5A22"/>
<path opacity="0.1" d="M145.879 519.74C143.037 521.799 131.55 521.623 131.55 521.623C131.55 521.623 136.715 509.514 139.585 507.455C140.267 506.939 141.03 506.59 141.828 506.428C142.626 506.266 143.444 506.294 144.232 506.511C145.021 506.728 145.765 507.13 146.421 507.692C147.077 508.254 147.631 508.966 148.05 509.785C148.47 510.605 148.747 511.515 148.865 512.462C148.983 513.41 148.94 514.376 148.737 515.304C148.535 516.231 148.178 517.102 147.687 517.864C147.196 518.626 146.582 519.264 145.879 519.74Z" fill="#3E5A22"/>
<path opacity="0.1" d="M131.514 461.943C133.695 464.96 144.635 469.019 144.635 469.019C144.635 469.019 142.923 455.573 140.742 452.599C139.695 451.15 138.204 450.253 136.597 450.105C134.99 449.957 133.399 450.57 132.175 451.809C130.95 453.048 130.191 454.812 130.066 456.712C129.941 458.613 130.459 460.494 131.507 461.943H131.514Z" fill="#3E5A22"/>
<path opacity="0.1" d="M122.613 494.338C125.454 496.439 136.921 496.447 136.921 496.447C136.921 496.447 131.891 484.263 129.049 482.162C127.684 481.189 126.05 480.889 124.5 481.328C122.95 481.767 121.607 482.91 120.763 484.508C119.918 486.107 119.639 488.035 119.985 489.875C120.331 491.716 121.275 493.322 122.613 494.346V494.338Z" fill="#3E5A22"/>
<path opacity="0.1" d="M117.618 527.228C120.119 529.867 131.422 532.169 131.422 532.169C131.422 532.169 128.21 519.153 125.738 516.514C124.531 515.285 122.964 514.665 121.375 514.789C119.786 514.913 118.301 515.77 117.241 517.176C116.181 518.582 115.63 520.424 115.707 522.306C115.784 524.188 116.483 525.958 117.653 527.236L117.618 527.228Z" fill="#3E5A22"/>
</g>
</g>
<defs>
<linearGradient id="paint0_linear" x1="386.721" y1="595.908" x2="386.721" y2="0.000573362" gradientUnits="userSpaceOnUse">
<stop stop-color="#808080" stop-opacity="0.25"/>
<stop offset="0.54" stop-color="#808080" stop-opacity="0.12"/>
<stop offset="1" stop-color="#808080" stop-opacity="0.1"/>
</linearGradient>
<clipPath id="clip0">
<rect width="763" height="621" fill="white"/>
</clipPath>
</defs>
</svg>
