<svg width="49" height="16" viewBox="0 0 49 16" fill="none" xmlns="http://www.w3.org/2000/svg">
<path d="M21.233 15.7692H17.2637L19.7464 0.280762H23.7155L21.233 15.7692Z" fill="#00579F"/>
<path d="M35.6218 0.659404C34.8389 0.346018 33.5971 0 32.0616 0C28.1417 0 25.3814 2.10895 25.3645 5.12412C25.3319 7.3487 27.3408 8.58429 28.8433 9.32604C30.379 10.084 30.901 10.5787 30.901 11.2543C30.8854 12.2919 29.6601 12.7702 28.5173 12.7702C26.9325 12.7702 26.0834 12.5236 24.793 11.9464L24.2703 11.6989L23.7148 15.1757C24.6458 15.6036 26.361 15.9834 28.1417 16C32.3067 16 35.0181 13.9237 35.0503 10.7105C35.0661 8.94739 34.0053 7.59639 31.7184 6.49242C30.3301 5.78374 29.4799 5.30589 29.4799 4.58079C29.4962 3.9216 30.199 3.24643 31.7662 3.24643C33.0566 3.21336 34.0047 3.52631 34.7229 3.83948L35.082 4.00394L35.6218 0.659404Z" fill="#00579F"/>
<path d="M40.8981 10.2822C41.2249 9.3924 42.4828 5.94865 42.4828 5.94865C42.4663 5.98172 42.809 5.04244 43.005 4.46582L43.2824 5.80039C43.2824 5.80039 44.0341 9.50781 44.1973 10.2822C43.577 10.2822 41.6821 10.2822 40.8981 10.2822ZM45.7977 0.280762H42.7274C41.7806 0.280762 41.0613 0.560641 40.6528 1.56584L34.7568 15.769H38.9217C38.9217 15.769 39.6074 13.8573 39.7548 13.4456C40.2117 13.4456 44.2633 13.4456 44.8511 13.4456C44.9651 13.9894 45.3247 15.769 45.3247 15.769H49L45.7977 0.280762Z" fill="#00579F"/>
<path d="M13.9484 0.280762L10.0611 10.8424L9.63632 8.70036C8.91764 6.22875 6.66371 3.5434 4.14844 2.20816L7.70906 15.7528H11.9065L18.1457 0.280762H13.9484Z" fill="#00579F"/>
<path d="M6.45162 0.280762H0.0653342L0 0.59371C4.9817 1.87901 8.28099 4.97718 9.63651 8.70102L8.24821 1.58271C8.01965 0.593491 7.31725 0.313392 6.45162 0.280762Z" fill="#F4A622"/>
</svg>
